<svg style="display: none;" id="icons" xmlns="http://www.w3.org/2000/svg"><symbol id="icons-history" viewBox="0 0 23 20">
<path d="M13.2,0.7c5.1,0,9.3,4.2,9.3,9.3c0,5.1-4.2,9.3-9.3,9.3c-1.9,0-3.7-0.6-5.2-1.6c-0.5-0.3-0.6-1-0.3-1.5
  c0.2-0.2,0.4-0.4,0.7-0.4s0.6,0,0.8,0.2c1.2,0.8,2.6,1.3,4,1.3c3.9,0,7.2-3.2,7.2-7.2c0-4-3.2-7.2-7.2-7.2c-3.8,0-6.9,2.9-7.1,6.7
  l0,0l2-2C8.5,7,9.1,7,9.5,7.4c0.4,0.4,0.4,1.1,0,1.5l0,0l-3.6,3.6c-0.2,0.2-0.5,0.3-0.7,0.3c-0.3,0-0.5-0.1-0.7-0.3l0,0L0.8,8.9
  c-0.4-0.4-0.4-1.1,0-1.5C1.3,7,1.9,7,2.3,7.4l0,0L4,9.1C4.4,4.4,8.4,0.7,13.2,0.7z"/>
<path d="M13.2,4.5c0.6,0,1.1,0.5,1.1,1.1l0,0v4l1.7,1.7c0.2,0.2,0.3,0.5,0.3,0.7c0,0.3-0.1,0.5-0.3,0.7
  c-0.2,0.2-0.5,0.3-0.7,0.3c-0.3,0-0.6-0.1-0.8-0.3l0,0l-2-2c-0.2-0.2-0.3-0.5-0.3-0.7l0,0V5.6C12.1,5,12.6,4.5,13.2,4.5z"/>
</symbol><symbol id="icons-notification" viewBox="0 0 22 24">
  <path fill-rule="evenodd" d="M17.0649,18.2422 L17.0259,18.1692 C16.1049,16.4422 16.1049,13.7882 16.1049,11.2212 C16.1049,7.1982 14.3329,4.9832 11.1129,4.9832 L10.8289,4.9832 C7.6099,4.9832 5.8379,7.1982 5.8379,11.2212 C5.8379,13.7882 5.8379,16.4422 4.9169,18.1692 L4.8769,18.2422 L17.0649,18.2422 Z M9.9389,20.1292 L9.9449,20.1842 C10.0019,20.6652 10.1079,20.9432 10.3229,21.1772 C10.4179,21.2792 10.5749,21.4512 10.9269,21.4512 C11.2999,21.4512 11.4689,21.2742 11.5599,21.1802 C11.7899,20.9382 11.9059,20.6592 11.9729,20.1852 L11.9809,20.1292 L9.9389,20.1292 Z M21.4559,19.2462 C21.4559,19.8062 21.0069,20.2282 20.4129,20.2282 L13.9839,20.2282 C13.8509,21.2092 13.5219,21.9832 13.0039,22.5292 C12.4489,23.1172 11.7109,23.4402 10.9269,23.4402 C10.1149,23.4402 9.3979,23.1272 8.8559,22.5342 C8.3579,21.9902 8.0509,21.2152 7.9429,20.2282 L1.5299,20.2282 C0.9429,20.2282 0.4999,19.8062 0.4999,19.2462 C0.4999,18.6852 0.9539,18.2632 1.5569,18.2632 C3.5769,18.2632 3.9029,16.1992 3.9029,11.2612 C3.9029,6.3462 6.1889,3.3332 10.1759,2.9872 L10.1759,1.5442 C10.1759,0.9682 10.6439,0.5002 11.2189,0.5002 C11.7939,0.5002 12.2619,0.9682 12.2619,1.5442 L12.2619,3.0182 C16.0019,3.4852 18.1449,6.4872 18.1449,11.2612 C18.1449,17.2052 18.7399,18.2632 20.4129,18.2632 C21.0069,18.2632 21.4559,18.6852 21.4559,19.2462 Z"/>
</symbol><symbol id="icons-trash" viewBox="0 0 18 19">
  <path fill-rule="evenodd" d="M10.71,16.0769231 C11.1066279,16.0769231 11.4327209,15.7413956 11.4421395,15.3436484 L11.655,6.32887912 C11.6646279,5.92528571 11.3443953,5.58558242 10.9400233,5.57618681 C10.5291628,5.57013187 10.1997209,5.88352747 10.1903023,6.28691209 L9.97723256,15.3106593 C9.96781395,15.7142527 10.2878372,16.0769231 10.6924186,16.0769231 L10.71,16.0769231 Z M7.25797674,16.0769231 L7.27555814,16.0769231 C7.67993023,16.0769231 8.00016279,15.6887802 7.99074419,15.2851868 L7.77767442,6.25830769 C7.76825581,5.85471429 7.43651163,5.52503297 7.02816279,5.53401099 C6.6237907,5.54340659 6.30355814,5.87267033 6.31318605,6.27626374 L6.52604651,15.3223516 C6.53546512,15.7198901 6.86134884,16.0769231 7.25797674,16.0769231 Z M6.90697674,2.50549451 L11.0930233,2.50549451 L11.0930233,1.46153846 L6.90697674,1.46153846 L6.90697674,2.50549451 Z M18,3.34065934 C18,3.80187912 17.6251395,4.17582418 17.1627907,4.17582418 L0.837209302,4.17582418 C0.374860465,4.17582418 0,3.80187912 0,3.34065934 C0,2.87943956 0.374860465,2.50549451 0.837209302,2.50549451 L5.44186047,2.50549451 L5.44186047,0.626373626 C5.44186047,0.22278022 5.71165116,0 6.11644186,0 L11.8835581,0 C12.2881395,0 12.5581395,0.22278022 12.5581395,0.626373626 L12.5581395,2.50549451 L17.1627907,2.50549451 C17.6251395,2.50549451 18,2.87943956 18,3.34065934 Z M15.7807674,6.13595604 L15.1417674,18.2088901 C15.1183256,18.6523626 14.7512093,19 14.305814,19 L3.69418605,19 C3.249,19 2.88188372,18.6523626 2.85823256,18.2088901 L2.21944186,6.13595604 C2.19495349,5.67536264 2.54972093,5.28220879 3.01123256,5.25798901 C3.47525581,5.23564835 3.86727907,5.58746154 3.89155814,6.04784615 L4.48827907,17.3296703 L13.5117209,17.3296703 L14.1084419,6.04784615 C14.1329302,5.58725275 14.5297674,5.23710989 14.9887674,5.25798901 C15.4502791,5.28220879 15.8050465,5.67536264 15.7807674,6.13595604 Z"/>
</symbol><symbol id="icons-camera-large" viewBox="0 0 62 52">
  <path fill-rule="evenodd" d="M31,40.25 C24.797,40.25 19.75,34.979 19.75,28.5 C19.75,22.021 24.797,16.75 31,16.75 C37.203,16.75 42.25,22.021 42.25,28.5 C42.25,34.979 37.203,40.25 31,40.25 Z M31,13.75 C23.143,13.75 16.75,20.367 16.75,28.5 C16.75,36.633 23.143,43.25 31,43.25 C38.858,43.25 45.25,36.633 45.25,28.5 C45.25,20.367 38.858,13.75 31,13.75 Z M58.25,48.25 L3.75,48.25 L3.75,16.621 L14.876,16.621 C15.53,16.621 16.134,16.146 16.312,15.492 L19.503,3.75 L42.499,3.75 L45.69,15.494 C45.869,16.146 46.472,16.621 47.126,16.621 L58.25,16.621 L58.25,48.25 Z M2.24,13.66 C1.391,13.66 0.75,14.251 0.75,15.035 L0.75,49.782 C0.75,50.592 1.418,51.25 2.24,51.25 L59.761,51.25 C60.582,51.25 61.25,50.592 61.25,49.782 L61.25,15.035 C61.25,14.251 60.61,13.66 59.761,13.66 L48.281,13.66 L45.086,1.883 C44.908,1.227 44.304,0.75 43.649,0.75 L18.352,0.75 C17.698,0.75 17.093,1.227 16.914,1.885 L13.722,13.66 L2.24,13.66 Z"/>
</symbol><symbol id="icons-video-camera" viewBox="0 0 44 24">
  <path fill-rule="evenodd" d="M40.0516973,18.1176714 L33.3764144,13.0706807 L33.3764144,10.7696153 L40.0516973,5.72262466 L40.0516973,18.1176714 Z M3.81444736,20.0258487 L29.0851611,20.0258487 L29.0851611,3.81444736 L3.81444736,3.81444736 L3.81444736,20.0258487 Z M42.8119268,0.201688904 C42.1663316,-0.122062316 41.2894855,-0.0514950394 40.7115967,0.381921542 L32.8996085,6.16510055 L32.8996085,1.90722368 C32.8996085,0.853959404 32.2525829,-5.1159077e-13 31.1993186,-5.1159077e-13 L1.90770049,-5.1159077e-13 C0.854436209,-5.1159077e-13 0,0.853959404 0,1.90722368 L0,21.9330723 C0,22.9863366 0.854436209,23.840296 1.90770049,23.840296 L31.1993186,23.840296 C32.2525829,23.840296 32.8996085,22.9863366 32.8996085,21.9330723 L32.8996085,17.6751955 L40.7115967,23.4583745 C41.0482217,23.7106048 41.5026177,23.840296 41.9083796,23.840296 C42.1987544,23.840296 42.5163071,23.7735432 42.7861793,23.6386071 C43.4327281,23.3158095 43.8661447,22.6554333 43.8661447,21.9330723 L43.8661447,1.90722368 C43.8661447,1.18486271 43.4584756,0.524486512 42.8119268,0.201688904 Z"/>
</symbol><symbol id="icons-arrow-expand" viewBox="0 0 10 6">
  <path d="M5,5.70363272 C4.80102839,5.70363272 4.60100402,5.62888677 4.44835385,5.47834211 L0.237314504,1.35362907 C-0.074302407,1.04832872 -0.0795662061,0.549320561 0.224681386,0.237703649 C0.532087258,-0.0749660218 1.03004266,-0.0791770612 1.34060681,0.225070531 L5,3.80866501 L8.65939319,0.225070531 C8.96995734,-0.0781243013 9.4689655,-0.0749660218 9.77531861,0.237703649 C10.0795662,0.549320561 10.0743024,1.04832872 9.7626855,1.35362907 L5.55164615,5.47834211 C5.39899598,5.62888677 5.19897161,5.70363272 5,5.70363272"/>
</symbol><symbol id="icons-move-down" viewBox="0 0 9 17">
  <path fill-rule="evenodd" d="M5.86932774,13.2467708 L5.86932774,1.24760417 C5.86932774,0.7884375 5.4784944,0.416770833 4.98932774,0.416770833 C4.5034944,0.416770833 4.11016107,0.7859375 4.11016107,1.24760417 L4.11016107,13.2467708 L2.09266107,11.2301042 C1.74766107,10.8967708 1.19932774,10.9009375 0.859327738,11.2401042 C0.520161071,11.5801042 0.515161071,12.1284375 0.849327738,12.4734375 L4.36766107,15.9917708 C4.7109944,16.3359375 5.26766107,16.3359375 5.6109944,15.9917708 L9.12932774,12.4734375 C9.3584944,12.2526042 9.45016107,11.9259375 9.36932774,11.6176042 C9.28932774,11.3101042 9.0484944,11.0701042 8.7409944,10.9901042 C8.4334944,10.9092708 8.10682774,11.0009375 7.8859944,11.2301042 L5.86932774,13.2467708 Z" transform="translate(-.5 .167)"/>
</symbol><symbol id="icons-move-up" viewBox="0 0 9 17">
  <path fill-rule="evenodd" d="M5.86880976,3.4196283 L5.86880976,15.4190959 C5.86880976,15.8778227 5.4782542,16.2499061 4.98918013,16.2499061 C4.50318476,16.2499061 4.1095505,15.8804616 4.1095505,15.4190959 L4.1095505,3.4196283 L2.09255976,5.43661904 C1.74741166,5.76997423 1.19878148,5.76520678 0.859478603,5.4259039 C0.520175725,5.08660102 0.515408277,4.53797084 0.848763461,4.19282275 L4.36728198,0.674304227 C4.71077722,0.330912708 5.26758304,0.330912708 5.61107828,0.674304227 L9.12959679,4.19282275 C9.35826231,4.41367529 9.44996899,4.7407246 9.36946929,5.048269 C9.2889696,5.35581341 9.04879116,5.59599185 8.74124676,5.67649154 C8.43370235,5.75699123 8.10665304,5.66528456 7.8858005,5.43661904 L5.86880976,3.4196283 Z" transform="translate(-.5 .167)"/>
</symbol><symbol id="icons-star-filled" viewBox="0 0 25 25">
  <path fill-rule="evenodd" d="M24.6070865,9.51180556 C24.4695865,9.10347222 24.0959754,8.82986111 23.6945865,8.82986111 C21.1334754,8.75069444 18.5737532,8.67986111 16.014031,8.61041667 L13.4473643,0.863194444 C13.3181976,0.447916667 12.939031,0.167361111 12.5001421,0.167361111 C12.0654199,0.167361111 11.6876421,0.44375 11.5570865,0.854861111 L8.98625319,8.61041667 C6.42653097,8.67986111 3.86680875,8.75069444 1.32791986,8.82986111 C0.905697636,8.82986111 0.530697636,9.10347222 0.391808747,9.51875 C0.262642081,9.92013889 0.397364303,10.3590278 0.708475414,10.5965278 L6.85291986,15.6215278 L4.64597541,23.5590278 C4.52791986,23.9673611 4.68069764,24.4090278 5.05708653,24.6756944 C5.2223643,24.78125 5.4098643,24.8326389 5.59597541,24.8326389 C5.80153097,24.8326389 6.00847541,24.76875 6.18764208,24.6423611 L12.5001421,20.00625 L18.814031,24.6423611 C19.1418087,24.88125 19.5959754,24.89375 19.9751421,24.6548611 C20.3195865,24.4090278 20.4723643,23.9673611 20.3556976,23.5659722 L18.1501421,15.6215278 L24.2737532,10.6118056 C24.6029199,10.3590278 24.739031,9.92013889 24.6070865,9.51180556"/>
</symbol><symbol id="icons-quiz" viewBox="0 0 22 22">
  <path fill-rule="evenodd" d="M14.9977,4.38535243 C16.0187,5.53735243 16.5027,7.14535243 16.3037,8.79735243 C15.9317,11.9003524 13.6627,13.0043524 11.6437,13.0043524 C11.5597,13.0043524 11.4697,13.0073524 11.4697,13.0103524 L11.4697,13.7943524 C11.4697,14.5083524 10.8907,15.0863524 10.1767,15.0863524 C9.4637,15.0863524 8.8847,14.5083524 8.8847,13.7943524 L8.8847,12.7533524 C8.8847,11.6893524 9.3287,10.4203524 11.6437,10.4203524 C12.8937,10.4203524 13.5617,9.77035243 13.7167,8.48935243 C13.7687,8.05435243 13.8087,6.95135243 13.0537,6.10135243 C12.4397,5.40835243 11.4427,5.05835243 10.0927,5.05835243 C7.1687,5.05835243 7.0847,6.94835243 7.0847,7.16335243 C7.0847,7.87735243 6.5057,8.45535243 5.7917,8.45535243 C5.0787,8.45535243 4.4997,7.87735243 4.4997,7.16335243 C4.4997,5.85935243 5.5047,2.47335243 10.0927,2.47335243 C12.7357,2.47335243 14.2237,3.51335243 14.9977,4.38535243 Z M10.0924,16.1861524 C10.5194,16.1861524 10.9364,16.3601524 11.2364,16.6611524 C11.5364,16.9611524 11.7074,17.3771524 11.7074,17.8011524 C11.7074,18.2271524 11.5364,18.6441524 11.2364,18.9451524 C10.9364,19.2461524 10.5194,19.4191524 10.0924,19.4191524 C9.6664,19.4191524 9.2524,19.2461524 8.9484,18.9451524 C8.6494,18.6441524 8.4774,18.2271524 8.4774,17.8011524 C8.4774,17.3771524 8.6494,16.9611524 8.9484,16.6611524 C9.2524,16.3601524 9.6664,16.1861524 10.0924,16.1861524 Z"/>
</symbol><symbol id="icons-external-link" viewBox="0 0 17 17">
<path style="fill-rule:evenodd;clip-rule:evenodd;" d="M7.2,1.7C7.6,1.7,8,2.1,8,2.5C8,3,7.6,3.3,7.2,3.3H2.3l0.1,11.7l10.1,0l-0.1-5.5c0-0.5,0.4-0.8,0.8-0.8
	C13.6,8.6,14,9,14,9.5v5.6c0,0.9-0.7,1.6-1.6,1.6H2.3c-0.9,0-1.6-0.7-1.6-1.6V3.3c0-0.9,0.7-1.6,1.6-1.6H7.2z"/>
<path style="fill-rule:evenodd;clip-rule:evenodd;" d="M10.8,0.3l4.7,0c0.5,0,0.8,0.4,0.8,0.8l0,0l0,4.7c0,0.2-0.1,0.4-0.2,0.6c-0.2,0.2-0.4,0.2-0.6,0.2
	c-0.5,0-0.8-0.4-0.8-0.8l0,0l0-2.7l-7.2,7.3c-0.3,0.3-0.9,0.3-1.2,0c-0.3-0.3-0.3-0.9,0-1.2l0,0L13.4,2l-2.7,0
	c-0.5,0-0.8-0.4-0.8-0.8C9.9,0.7,10.3,0.3,10.8,0.3L10.8,0.3z"/>
</symbol><symbol id="icons-arrow-right" viewBox="0 0 15 11">
  <path fill-rule="evenodd" d="M13.8604,4.575 L9.6404,0.353 C9.3494,0.054 8.9234,-0.069 8.5164,0.038 C8.1134,0.143 7.7974,0.46 7.6914,0.863 C7.5864,1.266 7.7064,1.697 8.0054,1.985 L10.2554,4.236 L1.0964,4.236 C0.4924,4.236 0.000400000001,4.754 0.000400000001,5.391 C0.000400000001,6.029 0.4924,6.547 1.0964,6.547 L10.2554,6.547 L8.0034,8.798 C7.5684,9.248 7.5754,9.974 8.0184,10.417 C8.2424,10.641 8.5384,10.754 8.8354,10.754 C9.1254,10.754 9.4164,10.645 9.6384,10.429 L13.8604,6.208 C14.3114,5.758 14.3114,5.025 13.8604,4.575"/>
</symbol><symbol id="icons-pen-simple" viewBox="0 0 16 17">
<path d="M14.6733219,2.57667795 L5.31996502,11.9297018 L4.32949205,10.9392282 L13.6738738,1.57790669 C13.7571894,1.49408306 13.8543909,1.48172119 13.9048544,1.48172119 C13.9554872,1.48172119 14.0526887,1.49408306 14.1361736,1.57773735 L14.6733219,2.11471661 C14.800666,2.24206079 14.800666,2.44950311 14.6733219,2.57667795 L14.6733219,2.57667795 Z M3.04504394,12.262964 L3.9967379,13.2146586 L2.42441078,13.8305506 L3.04504394,12.262964 Z M15.6314504,1.15692576 L15.0941328,0.619777167 C14.7766193,0.302094078 14.3544533,0.126995829 13.9050234,0.126995829 L13.9048541,0.126995829 C13.4552549,0.12716517 13.0327502,0.302432759 12.7150673,0.62062387 L2.01155844,11.3436135 C1.94636233,11.408979 1.89522148,11.4868757 1.86135336,11.5727314 L0.591299155,14.779705 C0.491896245,15.0303291 0.550996101,15.3160068 0.741165551,15.5070231 C0.870711081,15.6370767 1.04428516,15.7063371 1.22124604,15.7063371 C1.30422292,15.7063371 1.38787715,15.6910964 1.46814458,15.6597684 L4.68527656,14.4000432 C4.77231761,14.3660057 4.85123031,14.3143568 4.91727313,14.2483139 L15.6312811,3.53463805 C16.2867984,2.87945901 16.2869678,1.81278216 15.6314504,1.15692576 L15.6314504,1.15692576 Z" />
</symbol><symbol id="icons-drag" viewBox="0 0 20 12">
  <path fill-rule="evenodd" d="M0.857142857,10 L19.1428571,10 C19.6148571,10 20,10.4481203 20,11 C20,11.5518797 19.6148571,12 19.1428571,12 L0.857142857,12 C0.384,12 0,11.5518797 0,11 C0,10.4481203 0.384,10 0.857142857,10 Z M0.857142857,5 L19.1428571,5 C19.6148571,5 20,5.44778362 20,5.99924869 C20,6.55071375 19.6148571,7 19.1428571,7 L0.857142857,7 C0.384,7 0,6.55071375 0,5.99924869 C0,5.44778362 0.384,5 0.857142857,5 Z M0.857142857,0 L19.1428571,0 C19.6148571,0 20,0.447783621 20,1.00075131 C20,1.55071375 19.6148571,2 19.1428571,2 L0.857142857,2 C0.384,2 0,1.55071375 0,1.00075131 C0,0.447783621 0.384,0 0.857142857,0 Z"/>
</symbol><symbol id="icons-id-selfie" viewBox="0 0 56 56">
  <path d="M28,0.5c15.2,0,27.5,12.3,27.5,27.5S43.2,55.5,28,55.5
	S0.5,43.2,0.5,28S12.9,0.5,28,0.5z M28,3.3C14.4,3.3,3.3,14.4,3.3,28c0,13.6,11.1,24.7,24.7,24.7c13.6,0,24.7-11.1,24.7-24.7
	C52.7,14.4,41.7,3.3,28,3.3z M31.1,31.8c0.4-0.3,0.9-0.4,1.4-0.3c0.1,0,0.1,0,0.2,0.1l0.3,0.1c2.8,1,11.5,4.3,11.5,8.9
	c0,0.8-0.6,1.4-1.4,1.4l0,0H12.9c-0.8,0-1.4-0.6-1.4-1.4c0-5,10-8.5,12-9.1c0.5-0.2,1,0,1.4,0.3l0,0l3.1,2.7L31.1,31.8z M32.3,34.5
	l-3.4,2.9c-0.5,0.5-1.3,0.5-1.9,0l0,0l-3.4-2.9c-3.2,1.1-6.9,3-8.5,4.7l0,0h25.8C39.3,37.5,35.5,35.6,32.3,34.5L32.3,34.5z M28,11
	c5.3,0,9.7,4.4,9.7,9.7s-4.3,9.8-9.7,9.8c-5.3,0-9.7-4.4-9.7-9.8S22.6,11,28,11z M28,13.9c-3.7,0-6.8,3.1-6.8,6.9s3,6.9,6.8,6.9
	c3.7,0,6.8-3.1,6.8-6.9S31.7,13.9,28,13.9z"/>
</symbol><symbol id="icons-settings" viewBox="0 0 20 20">
  <path d="M12.8441023,1.7935 C12.7471075,1.54038461 12.6432356,1.2899584 12.5326023,1.0425 C12.2856023,0.4465 11.6091023,0 10.9311023,0 L9.06910229,0 C8.39410229,0 7.72060229,0.446 7.45610229,1.068 C7.40210229,1.1855 7.29360229,1.4405 7.15610229,1.7935 C6.93060229,2.3745 6.63510229,3.2955 6.63510229,3.2955 L5.90110229,3.732 C5.90110229,3.732 4.80860229,3.51 4.31560229,3.434 C3.94060229,3.376 3.66560229,3.3425 3.50910229,3.328 C2.86910229,3.244 2.14410229,3.6065 1.80510229,4.194 L0.875102287,5.806 C0.537102287,6.391 0.586602287,7.197 0.993602287,7.737 C1.06810229,7.843 1.23460229,8.0645 1.47210229,8.36 C1.86210229,8.846 2.51260229,9.572 2.51260229,9.572 C2.51260229,9.572 2.50010229,9.857 2.50010229,10 C2.50010229,10.303 2.51060229,10.429 2.51060229,10.429 C2.51060229,10.429 1.78060229,11.255 1.47160229,11.64 C1.30078053,11.8504689 1.1357194,12.0655485 0.976602287,12.285 C0.584102287,12.7975 0.535102287,13.6065 0.874602287,14.194 L1.80510229,15.806 C2.14310229,16.391 2.86510229,16.751 3.53660229,16.669 C3.66560229,16.6575 3.94060229,16.624 4.31560229,16.566 C4.93210229,16.471 5.87910229,16.267 5.87910229,16.267 L6.62410229,16.692 C6.62410229,16.692 6.97660229,17.7435 7.15610229,18.2065 C7.29360229,18.5595 7.40210229,18.8145 7.46760229,18.9575 C7.71460229,19.553 8.39110229,20 9.06910229,20 L10.9311023,20 C11.6061023,20 12.2796023,19.5545 12.5441023,18.932 C12.5981023,18.8145 12.7066023,18.5595 12.8441023,18.2065 C13.0696023,17.6255 13.3741023,16.7 13.3741023,16.7 L14.1046023,16.269 C14.1046023,16.269 15.1931023,16.49 15.6846023,16.566 C15.9315826,16.6041049 16.1792985,16.6372782 16.4276023,16.6655 L16.4846023,16.6715 C17.1306023,16.756 17.8561023,16.3935 18.1946023,15.8065 L19.1256023,14.194 C19.4636023,13.609 19.4141023,12.803 19.0076023,12.263 C18.853568,12.0510629 18.6938433,11.8433207 18.5286023,11.64 C18.1386023,11.154 17.4876023,10.4365 17.4876023,10.4365 C17.4876023,10.4365 17.5001023,10.146 17.5001023,10 C17.5001023,9.697 17.4911023,9.5695 17.4911023,9.5695 C17.4911023,9.5695 18.2201023,8.7445 18.5286023,8.3595 C18.7661023,8.0645 18.9326023,7.8425 19.0236023,7.7145 C19.4161023,7.2025 19.4646023,6.3935 19.1256023,5.806 L18.1951023,4.194 C17.8571023,3.609 17.1346023,3.249 16.4636023,3.331 C16.3346023,3.343 16.0591023,3.376 15.6846023,3.434 C15.0681023,3.529 14.1166023,3.73 14.1166023,3.73 L13.3736023,3.2965 C13.3736023,3.2965 13.0696023,2.3745 12.8436023,1.7935 L12.8441023,1.7935 Z M11.7246023,4.7545 L12.1561023,4.9385 C12.5641023,5.1125 12.9491023,5.3355 13.3031023,5.602 L13.6781023,5.884 L14.1356023,5.7755 C14.7485035,5.62923137 15.3669951,5.50746792 15.9896023,5.4105 C16.1856023,5.3805 16.3596023,5.3565 16.5096023,5.3385 C16.5961023,5.3275 17.3446023,6.6235 17.2921023,6.6935 C17.2016023,6.814 17.0936023,6.953 16.9691023,7.1075 C16.5740389,7.59834131 16.1595423,8.07321924 15.7266023,8.531 L15.4046023,8.871 L15.4606023,9.3365 C15.5135197,9.77725067 15.5135197,10.2227493 15.4606023,10.6635 L15.4046023,11.1285 L15.7266023,11.469 C16.1595423,11.9267808 16.5740389,12.4016587 16.9691023,12.8925 C17.0936023,13.0475 17.2016023,13.186 17.2921023,13.3065 C17.3446023,13.3765 16.5606023,14.668 16.5096023,14.6615 C16.3596023,14.6435 16.1856023,14.6195 15.9896023,14.589 C15.3669951,14.4920321 14.7485035,14.3702686 14.1356023,14.224 L13.6786023,14.116 L13.3036023,14.398 C12.9486023,14.6645 12.5636023,14.888 12.1561023,15.0615 L11.7246023,15.2455 L11.5906023,15.695 C11.410783,16.2985556 11.2069542,16.8946964 10.9796023,17.482 C10.9081023,17.667 10.8416023,17.8295 10.7826023,17.9685 C10.7486023,18.0485 9.25210229,18.0485 9.21760229,17.9685 C9.15860229,17.8295 9.09260229,17.667 9.02060229,17.482 C8.79343497,16.8946832 8.58977324,16.2985432 8.41010229,15.695 L8.27510229,15.2455 L7.84410229,15.0615 C7.43642279,14.8875804 7.05128951,14.664962 6.69710229,14.3985 L6.32210229,14.116 L5.86510229,14.2245 C5.25204013,14.3708014 4.63338067,14.492565 4.01060229,14.5895 C3.81460229,14.6195 3.64060229,14.6435 3.49060229,14.662 C3.40410229,14.672 2.65560229,13.3765 2.70810229,13.3065 C2.79860229,13.1865 2.90660229,13.047 3.03110229,12.8925 C3.42618759,12.4018381 3.84068361,11.9271275 4.27360229,11.4695 L4.59560229,11.129 L4.53960229,10.664 C4.48665444,10.2230839 4.48665444,9.77741612 4.53960229,9.3365 L4.59560229,8.8715 L4.27360229,8.5305 C3.84068361,8.07287247 3.42618759,7.59816194 3.03110229,7.1075 C2.90660229,6.9525 2.79860229,6.814 2.70810229,6.6935 C2.65560229,6.6235 3.40410229,5.3275 3.49060229,5.3385 C3.64060229,5.3565 3.81460229,5.3805 4.01060229,5.4105 C4.57610229,5.498 5.20060229,5.618 5.86510229,5.7755 L6.32210229,5.884 L6.69710229,5.6015 C7.05128951,5.33503801 7.43642279,5.11241955 7.84410229,4.9385 L8.27560229,4.7545 L8.41010229,4.3045 C8.60510229,3.6515 8.81360229,3.051 9.02010229,2.518 C9.09260229,2.333 9.15860229,2.1705 9.21760229,2.0315 C9.25210229,1.9515 10.7486023,1.9515 10.7826023,2.0315 C10.8416023,2.1705 10.9076023,2.333 10.9796023,2.518 C11.1871023,3.051 11.3951023,3.6515 11.5906023,4.305 L11.7246023,4.7545 Z M10.0001023,13 C8.34324804,13 7.00010229,11.6568542 7.00010229,10 C7.00010229,8.34314575 8.34324804,7 10.0001023,7 C11.6569565,7 13.0001023,8.34314575 13.0001023,10 C13.0001023,11.6568542 11.6569565,13 10.0001023,13 Z M10.0001023,11 C10.552387,11 11.0001023,10.5522847 11.0001023,10 C11.0001023,9.44771525 10.552387,9 10.0001023,9 C9.44781754,9 9.00010229,9.44771525 9.00010229,10 C9.00010229,10.5522847 9.44781754,11 10.0001023,11 Z"/>
</symbol><symbol id="icons-share" viewBox="0 0 20 26">
  <path fill-rule="evenodd" d="M6.38192002,6.59355524 L8.7886066,4.21157797 L8.81825777,17.1375111 C8.82023451,17.7255926 9.29761834,18.201988 9.88668824,18.2000113 C10.4737814,18.1990229 10.9491885,17.7226275 10.9491885,17.1345459 L10.9491885,17.1325692 L10.9185489,4.22245006 L13.313375,6.59355524 C13.7314565,7.00768324 14.4055264,7.00471812 14.8196544,6.58663663 C15.0252359,6.37907845 15.129015,6.10727606 15.129015,5.83646205 C15.129015,5.56268292 15.0222708,5.28791542 14.8117475,5.07936886 L10.5973279,0.905472584 C10.1822116,0.495298075 9.5130835,0.495298075 9.09796713,0.905472584 L4.88255922,5.07936886 C4.46546611,5.49349686 4.46151262,6.16855515 4.87564062,6.58663663 C5.28976861,7.00471812 5.96383853,7.00768324 6.38192002,6.59355524 M19.7377951,10.1358816 L19.7377951,24.0343731 C19.7377951,24.6224546 19.2604112,25.0998384 18.6723297,25.0998384 L1.09511652,25.0998384 C0.507034996,25.0998384 0.0296511694,24.6224546 0.0296511694,24.0343731 L0.0296511694,10.1358816 C0.0296511694,9.54780008 0.507034996,9.11983487 1.09511652,9.11983487 L5.96680365,9.11983487 C6.55488517,9.11983487 7.032269,9.5972187 7.032269,10.1853002 C7.032269,10.7733817 6.55488517,11.2507656 5.96680365,11.2507656 L2.16058187,11.2507656 L2.16058187,22.9689077 L17.6068644,22.9689077 L17.6068644,11.2507656 L13.8006426,11.2507656 C13.2115727,11.2507656 12.7351772,10.7733817 12.7351772,10.1853002 C12.7351772,9.5972187 13.2115727,9.11983487 13.8006426,9.11983487 L18.6723297,9.11983487 C19.2604112,9.11983487 19.7377951,9.54780008 19.7377951,10.1358816"/>
</symbol><symbol id="icons-quote" viewBox="0 0 20 13">
  <path fill-rule="evenodd" d="M14.4286122,6.94141429 C12.6743078,6.55156887 11.5827406,5.53797078 11.5827406,3.58657787 C11.5827406,1.59836622 12.908215,0 15.4032257,0 C17.9004022,0 19.6547066,1.71531985 19.6547066,4.7192954 C19.6547066,8.77585358 16.2240669,12.1675087 10.2940849,12.1675087 L10.2940849,9.86742075 C13.0251687,9.55337861 15.5201794,8.85165685 15.873206,6.94141429 L14.4286122,6.94141429 Z M4.13452726,6.94141429 C2.38022287,6.55156887 1.28648989,5.53797078 1.28648989,3.58657787 C1.28648989,1.59836622 2.61196432,0 5.10914082,0 C7.60415151,0 9.36062171,1.71531985 9.36062171,4.7192954 C9.36062171,8.77585358 5.9278162,12.1675087 0,12.1675087 L0,9.86742075 C2.73108375,9.55337861 5.22609444,8.85165685 5.57695532,6.94141429 L4.13452726,6.94141429 Z"/>
</symbol><symbol id="icons-mask-ellipse" viewBox="0 0 100 100">
  <ellipse cx="50%" cy="50%" rx="30" ry="46" />
</symbol><symbol id="icons-add" viewBox="0 0 20 20">
  <path fill-rule="evenodd" d="M10,20 C9.26475038,20 8.66464952,19.4009077 8.66464952,18.6656581 L8.66464952,11.3343419 L1.33434191,11.3343419 C0.599092284,11.3343419 0,10.7352496 0,10 C0,9.26273323 0.599092284,8.66464952 1.33434191,8.66464952 L8.66464952,8.66464952 L8.66464952,1.33434191 C8.66464952,0.599092284 9.26475038,0 10,0 C10.7362582,0 11.3353505,0.599092284 11.3353505,1.33434191 L11.3353505,8.66464952 L18.6646495,8.66464952 C19.4009077,8.66464952 20,9.26273323 20,10 C20,10.7352496 19.4009077,11.3343419 18.6646495,11.3343419 L11.3353505,11.3343419 L11.3353505,18.6656581 C11.3353505,19.4009077 10.7362582,20 10,20"/>
</symbol><symbol id="icons-dots" viewBox="0 0 16 4">
  <path fill-rule="evenodd" d="M7.94845906,3.35691816 C7.02148169,3.35691816 6.27000003,2.61253459 6.27000003,1.68565119 C6.27000003,0.757868775 7.02148169,0 7.94845906,0 C8.87543643,0 9.62691809,0.757868775 9.62691809,1.68565119 C9.62691809,2.61253459 8.87543643,3.35691816 7.94845906,3.35691816 Z M14.218459,3.35691816 C13.2914816,3.35691816 12.54,2.61253459 12.54,1.68565119 C12.54,0.757868775 13.2914816,0 14.218459,0 C15.1454364,0 15.896918,0.757868775 15.896918,1.68565119 C15.896918,2.61253459 15.1454364,3.35691816 14.218459,3.35691816 Z M3.35691816,1.68565119 C3.35691816,2.61253459 2.60543648,3.35691816 1.67845908,3.35691816 C0.751481679,3.35691816 -8.8817842e-16,2.61253459 -8.8817842e-16,1.68565119 C-8.8817842e-16,0.757868775 0.751481679,0 1.67845908,0 C2.60543648,0 3.35691816,0.757868775 3.35691816,1.68565119 Z"/>
</symbol><symbol id="icons-caret-left" viewBox="0 0 10 17">
<path fill-rule="evenodd" d="M8.3,16.4c-0.3,0-0.6-0.1-0.9-0.4L0.9,9.4c-0.5-0.5-0.5-1.3,0-1.7L7.4,1c0.5-0.5,1.3-0.5,1.8,0
	c0.5,0.5,0.5,1.3,0,1.8L3.5,8.5l5.6,5.8c0.5,0.5,0.5,1.3,0,1.8C8.9,16.3,8.6,16.4,8.3,16.4"/>
</symbol><symbol id="icons-star" viewBox="0 0 23 23">
  <path fill-rule="evenodd" d="M15.2785941,13.358125 C14.9923441,13.593125 14.8710941,13.975625 14.9698441,14.333125 L16.5510941,20.024375 L12.0548441,16.721875 C11.7248441,16.480625 11.2760941,16.481875 10.9460941,16.723125 L6.4510941,20.024375 L8.0323441,14.334375 C8.1310941,13.975625 8.0110941,13.593125 7.7235941,13.358125 L3.2560941,9.704375 C5.1010941,9.649375 6.9523441,9.599375 8.8185941,9.548125 C9.2123441,9.536875 9.5585941,9.280625 9.6823441,8.905625 L11.5010941,3.421875 L13.3185941,8.905625 C13.4423441,9.280625 13.7885941,9.536875 14.1823441,9.548125 C16.0335941,9.598125 17.8823441,9.649375 19.7448441,9.704375 L15.2785941,13.358125 Z M22.6935941,8.710625 C22.5273441,8.216875 22.0723441,7.883125 21.5848441,7.883125 C19.3523441,7.814375 17.1223441,7.753125 14.8910941,7.691875 L12.6510941,0.934375 C12.4935941,0.428125 12.0323441,0.088125 11.5010941,0.088125 C10.9735941,0.088125 10.5135941,0.421875 10.3535941,0.921875 L8.1098441,7.691875 C5.8785941,7.753125 3.6498441,7.814375 1.4460941,7.883125 C0.929844104,7.883125 0.473594104,8.216875 0.304844104,8.719375 C0.148594104,9.206875 0.312344104,9.740625 0.689844104,10.028125 L6.0623441,14.421875 L4.1310941,21.365625 C3.9885941,21.860625 4.1735941,22.394375 4.6335941,22.720625 C4.8348441,22.848125 5.0585941,22.911875 5.2860941,22.911875 C5.5348441,22.911875 5.7860941,22.834375 6.0035941,22.678125 L11.5010941,18.643125 L16.9985941,22.678125 C17.3985941,22.970625 17.9485941,22.988125 18.4085941,22.693125 C18.8273441,22.394375 19.0123441,21.860625 18.8723441,21.375625 L16.9398441,14.421875 L22.2848441,10.048125 C22.6885941,9.740625 22.8535941,9.206875 22.6935941,8.710625 Z"/>
</symbol><symbol id="icons-download-offline" viewBox="0 0 17 19">
  <path fill-rule="evenodd" d="M8.05555649,13.1998962 C8.23835596,13.3847899 8.48902459,13.4891778 8.75019447,13.4891778 C9.01175328,13.4891778 9.26203298,13.3847899 9.44502691,13.1998962 L13.3240705,9.27764525 C13.6997818,8.89745751 13.6933643,8.28788598 13.3098744,7.91559474 C12.9259955,7.5436887 12.3103113,7.54985182 11.9346001,7.93003956 L9.7223376,10.166676 L9.7223376,1.82854634 C9.7223376,1.29678426 9.28692482,0.865558143 8.75,0.865558143 C8.21326965,0.865558143 7.7776624,1.29678426 7.7776624,1.82854634 L7.7776624,10.1664834 L5.56617777,7.93003956 C5.19046652,7.54985182 4.57517129,7.5436887 4.19129241,7.91559474 C3.80760799,8.28788598 3.80119056,8.89745751 4.17690181,9.27764525 L8.05555649,13.1998962 Z M17.1121033,17.2363575 C17.1121033,17.7681196 16.6770795,18.1993457 16.1399602,18.1993457 L1.36042872,18.1993457 C0.823698371,18.1993457 0.38789666,17.7681196 0.38789666,17.2363575 L0.38789666,11.9921164 C0.38789666,11.4603543 0.823503903,11.0291282 1.36023426,11.0291282 C1.89715908,11.0291282 2.33257186,11.4603543 2.33257186,11.9921164 L2.33257186,16.2733693 L15.1674281,16.2733693 L15.1674281,11.9921164 C15.1674281,11.4603543 15.6030354,11.0291282 16.1397657,11.0291282 C16.6766906,11.0291282 17.1121033,11.4603543 17.1121033,11.9921164 L17.1121033,17.2363575 Z" transform="translate(-.25 -.153)"/>
</symbol><symbol id="icons-home" viewBox="0 0 25 24">
	<path fill-rule="evenodd" d="M10.6,16.1v5.7l4.6,0v-5.7L10.6,16.1z M12.8,3.3L5,11.1v0
					c0,1.1,0,3.7,0,6.1l0,4.2c0,0.4,0,0.4,0.1,0.4h3.4v-6.7c0-0.6,0.5-1.1,1.1-1.1h6.7c0.3,0,0.5,0.1,0.7,0.3
					c0.2,0.2,0.3,0.5,0.3,0.7v6.7h0.1c1.9,0,3.3,0,3.3,0l0-0.1h0.1V11.1L12.8,3.3z M25.1,13.2c-0.1,0.4-0.4,0.7-0.8,0.8
					c-0.4,0.1-0.8,0-1.1-0.3l-0.2-0.2v8.3c0,0.6-0.2,1.2-0.7,1.6c-0.4,0.4-1,0.7-1.6,0.7h0H5.1h0c-0.6,0-1.2-0.2-1.6-0.7
					c-0.4-0.4-0.7-1-0.7-1.6v-8.3l-0.2,0.2C2.3,14,1.8,14.1,1.4,14c-0.4-0.1-0.7-0.4-0.8-0.8c-0.1-0.4,0-0.8,0.3-1.1L12,0.9
					c0.5-0.5,1.2-0.5,1.7,0L24.8,12C25.1,12.3,25.2,12.8,25.1,13.2L25.1,13.2z"/>
</symbol><symbol id="icons-text" viewBox="0 0 22 22">
  <path fill-rule="evenodd" d="M11.8896,17.7178 L1.9996,17.7178 C1.4476,17.7178 0.9996,17.2708 0.9996,16.7178 C0.9996,16.1648 1.4476,15.7178 1.9996,15.7178 L11.8896,15.7178 C12.4426,15.7178 12.8896,16.1648 12.8896,16.7178 C12.8896,17.2708 12.4426,17.7178 11.8896,17.7178 Z M20.3398,11.8584 L1.9998,11.8584 C1.4468,11.8584 0.9998,11.4114 0.9998,10.8584 C0.9998,10.3054 1.4468,9.8584 1.9998,9.8584 L20.3398,9.8584 C20.8928,9.8584 21.3398,10.3054 21.3398,10.8584 C21.3398,11.4114 20.8928,11.8584 20.3398,11.8584 Z M15.3398,6 L1.9998,6 C1.4468,6 0.9998,5.553 0.9998,5 C0.9998,4.447 1.4468,4 1.9998,4 L15.3398,4 C15.8928,4 16.3398,4.447 16.3398,5 C16.3398,5.553 15.8928,6 15.3398,6 Z"/>
</symbol><symbol id="icons-camera" viewBox="0 0 23 20">
  <path fill-rule="evenodd" d="M20.7676689,17.1816043 L20.7676689,6.87279125 L17.2732998,6.87279125 C16.8357469,6.87279125 16.4524341,6.56568451 16.3383847,6.14757823 L15.2974109,2.3177343 L7.83552458,2.3177343 L6.79503505,6.14757823 C6.68074344,6.56568451 6.29743068,6.87279125 5.86011997,6.87279125 L2.36478221,6.87279125 L2.36478221,17.1816043 L20.7676689,17.1816043 Z M18.0203765,4.9402364 L21.7449876,4.9402364 C22.2803293,4.9402364 22.7141281,5.33773603 22.7141281,5.8689379 L22.7141281,18.1661769 C22.7141281,18.6973788 22.2803293,19.1280635 21.7449876,19.1280635 L1.38794821,19.1280635 C0.852606546,19.1280635 0.418323039,18.6973788 0.418323039,18.1661769 L0.418323039,5.8689379 C0.418323039,5.33773603 0.852606546,4.9402364 1.38794821,4.9402364 L5.11304408,4.9402364 L6.15440359,1.09870185 C6.26879076,0.679319303 6.65242402,0.371275124 7.09010036,0.371275124 L16.0428355,0.371275124 C16.4807542,0.371275124 16.8643874,0.679319303 16.9785323,1.09870185 L18.0203765,4.9402364 Z M7.2898851,10.8702351 C7.2898851,8.44997883 9.20839851,6.48091198 11.5663188,6.48091198 C13.9242391,6.48091198 15.8425661,8.44997883 15.8425661,10.8702351 C15.8425661,13.2904913 13.9242391,15.2593693 11.5663188,15.2593693 C9.20839851,15.2593693 7.2898851,13.2904913 7.2898851,10.8702351 Z M11.5663179,13.750572 C13.0875751,13.750572 14.3251549,12.4582428 14.3251549,10.8701406 C14.3251549,9.28184954 13.0875751,7.98970933 11.5663179,7.98970933 C10.0450607,7.98970933 8.80729624,9.28184954 8.80729624,10.8701406 C8.80729624,12.4582428 10.0450607,13.750572 11.5663179,13.750572 Z"/>
</symbol><symbol id="icons-retry" viewBox="0 0 29 29">
  <path fill-rule="evenodd" d="M3.58673871,5.35835806 C6.46241613,1.81006774 10.0397065,-9.35483873e-05 14.501029,-9.35483873e-05 C22.2505774,-9.35483873e-05 28.5332871,6.28261613 28.5332871,14.0321645 C28.5332871,21.7826484 22.2505774,28.0644226 14.501029,28.0644226 C7.40257742,28.0644226 1.44635161,22.7658419 0.577287097,15.7833903 C0.50806129,15.2305194 0.739125806,14.6832613 1.18348065,14.3464871 C1.62783548,14.0106484 2.21812581,13.9367452 2.73077097,14.1528419 C3.24435161,14.3708097 3.60264194,14.8451 3.67186774,15.3970355 C4.34635161,20.8247129 8.97980323,24.9455194 14.501029,24.9455194 C20.5283516,24.9455194 25.4143839,20.0604226 25.4143839,14.0321645 C25.4143839,8.00484194 20.5283516,3.11787419 14.501029,3.11787419 C10.8629323,3.11787419 8.01625484,4.62587419 5.63731935,7.79529355 L8.25667419,7.79529355 C9.11731935,7.79529355 9.81519032,8.4941 9.81519032,9.35474516 C9.81519032,10.2153903 9.11731935,10.9132613 8.25667419,10.9132613 L3.01141613,10.9132613 C2.84957742,10.9394548 2.68212581,10.9403903 2.51748065,10.9132613 L2.03383548,10.9132613 C1.5979,10.9132613 1.20873871,10.7392613 0.927158065,10.4567452 C0.642770968,10.1761 0.467835484,9.78600323 0.467835484,9.35474516 L0.467835484,3.12535806 C0.467835484,2.26377742 1.16570645,1.56590645 2.0272871,1.56590645 C2.88793226,1.56590645 3.58673871,2.26377742 3.58673871,3.12535806 L3.58673871,5.35835806 Z"/>
</symbol><symbol id="icons-arrow-left" viewBox="0 0 15 11">
  <path fill-rule="evenodd" d="M.34,6.18,4.56,10.4A1.15,1.15,0,1,0,6.19,8.77L3.94,6.52H13.1a1.13,1.13,0,0,0,1.1-1.16,1.12,1.12,0,0,0-1.1-1.15H3.94L6.2,2a1.17,1.17,0,0,0,0-1.62A1.13,1.13,0,0,0,5.36,0a1.16,1.16,0,0,0-.8.32L.34,4.55a1.15,1.15,0,0,0,0,1.63" /></symbol><symbol id="icons-id-back" viewBox="0 0 62 39">
  <path d="M56.2,1c3.1,0,5.6,2.4,5.6,5.2v27.3c0,2.9-2.5,5.2-5.6,5.2
	H6.5c-3.1,0-5.6-2.4-5.6-5.2V6.2C0.9,3.4,3.4,1,6.5,1H56.2z M3.7,13.3v20.3C3.7,34.9,5,36,6.5,36h49.7c1.5,0,2.8-1.1,2.8-2.4V13.3
	L3.7,13.3L3.7,13.3z M56.2,3.8H6.5C5,3.8,3.7,4.9,3.7,6.2l0,4.3c0,0,0.1,0,0.1,0h55.1V6.2C58.9,4.9,57.7,3.8,56.2,3.8z"/>
</symbol><symbol id="icons-bookmark-filled" viewBox="0 0 13 19">
  <path d="M11.7825023,0.58226916 C12.3159906,0.58226916 12.75,1.01210543 12.75,1.54133589 L12.75,17.2351551 C12.75,17.6336037 12.4973414,17.9945615 12.1196739,18.1340621 C12.0113916,18.1741686 11.8978273,18.1933499 11.7825023,18.1933499 C11.5034333,18.1933499 11.2366892,18.0739025 11.0509367,17.8629078 L6.50044017,12.6046065 L1.95434538,17.8585484 C1.6928833,18.1619623 1.26327558,18.2735628 0.88384745,18.1340621 C0.505299669,17.9963053 0.25,17.6353475 0.25,17.2351551 L0.25,1.54133589 C0.25,1.01210543 0.68488978,0.58226916 1.21837805,0.58226916 L11.7825023,0.58226916 Z"/>
</symbol><symbol id="icons-computer-id" viewBox="0 0 169 135" xmlns:xlink="http://www.w3.org/1999/xlink">
    <title>071E4D69-E3AC-4A58-A4C0-3861D3935A11</title>
    <g id="Desktop-0620a503-ddfe-45c9-a6b0-0054316510b6" stroke="none" stroke-width="1" fill="none" fill-rule="evenodd">
        <g id="Personal-Verification---Intro-1-7ef3485f-ec86-4d36-8565-31bdec306038" transform="translate(-613.000000, -284.000000)">
            <g id="ID-1f763cc3-a0a7-4577-959d-16113fd65b1d" transform="translate(614.437091, 285.000000)">
                <g id="Group-5-32403361-978b-41ee-a8da-788a79af9fea" transform="translate(47.562909, 55.000000)">
                    <path d="M58,3.84475 C58,1.72141667 56.1402174,0 53.8454348,0 L4.15519565,0 C1.86041304,0 0,1.72141667 0,3.84475 L0,31.15525 C0,33.2785833 1.86041304,35 4.15519565,35 L53.8454348,35 C56.1402174,35 58,33.2785833 58,31.15525 L58,3.84475 Z" id="Path-a5530953-bba8-4d9b-a59a-032c959df923" stroke="#2D2D2D" stroke-width="2.8"></path>
                    <g id="Group-3-f891342d-6b32-464b-af6f-f972b9f418f1" transform="translate(21.531250, 5.000000)" fill="#2D2D2D">
                        <path d="M4.09157609,28.1162791 C5.67378261,26.4336279 9.45838043,24.5595698 12.621,23.4522209 L16.0393696,26.3734302 C16.5752609,26.8315814 17.3625978,26.8315814 17.8984891,26.3734302 L21.3168587,23.4522209 C24.4794783,24.5595698 28.2640761,26.4336279 29.8462826,28.1162791 L4.09157609,28.1162791 Z M21.44025,20.4527907 C20.9682065,20.3006744 20.4520435,20.4055698 20.0746957,20.728186 L16.96875,23.3822907 L13.863163,20.728186 C13.4858152,20.4055698 12.9696522,20.3006744 12.4976087,20.4527907 C10.488913,21.0969419 0.46875,24.5624535 0.46875,29.5581395 C0.46875,30.354407 1.11117391,31 1.90353261,31 L32.0339674,31 C32.8263261,31 33.46875,30.354407 33.46875,29.5581395 C33.46875,24.5624535 23.448587,21.0969419 21.44025,20.4527907 L21.44025,20.4527907 Z M16.96875,2.88372093 C20.7120978,2.88372093 23.7574239,5.96353488 23.7574239,9.74877907 C23.7574239,13.5351047 20.7120978,16.6152791 16.96875,16.6152791 C13.2257609,16.6152791 10.1804348,13.5351047 10.1804348,9.74877907 C10.1804348,5.96353488 13.2257609,2.88372093 16.96875,2.88372093 L16.96875,2.88372093 Z M16.96875,19.499 C22.2943043,19.499 26.6269891,15.1251163 26.6269891,9.74877907 C26.6269891,4.37316279 22.2943043,0 16.96875,0 C11.6435543,0 7.31086957,4.37316279 7.31086957,9.74877907 C7.31086957,15.1251163 11.6435543,19.499 16.96875,19.499 L16.96875,19.499 Z" id="Fill-1-bc465d17-e050-4179-8528-aec0694ac34e"></path>
                    </g>
                    <g id="Group-2-82007a57-3313-484f-8abd-2fde837b3d8e" transform="translate(8.000000, 11.000000)" stroke="#2D2D2D" stroke-linecap="round" stroke-width="2.8">
                        <line x1="14.53125" y1="0.5" x2="0.46875" y2="0.5" id="Line-9-77baf162-bfbd-4597-a3e1-6fa8d5cad178"></line>
                        <line x1="14.53125" y1="6" x2="0.46875" y2="6" id="Line-9-Copy-9ed2bb0d-e925-4c03-832f-f11e279c9d65"></line>
                        <line x1="9.5" y1="11.5" x2="0.5" y2="11.5" id="Line-9-Copy-2-8fb1e101-b9db-44f6-bff4-9bf09344b196"></line>
                    </g>
                </g>
                <g id="Group-e089ac92-a91e-425c-9fcc-9ae02cec325b" transform="translate(0.000000, 29.000000)" stroke="#2D2D2D" stroke-width="2.8">
                    <path d="M128.8343,84 L24.1666784,84 C22.4180617,84 21,82.5846977 21,80.8382791 L21,3.16172093 C21,1.41530233 22.4180617,0 24.1666784,0 L128.8343,0 C130.582916,0 132,1.41530233 132,3.16172093 L132,80.8382791 C132,82.5846977 130.582916,84 128.8343,84 Z" id="Stroke-17-7ecd9fed-ec4c-4004-8149-46fefabdd3e0"></path>
                    <path d="M150.104131,101.622 C150.886435,102.38 150.643313,103 149.564949,103 L1.53496161,103 C0.457577792,103 0.241904963,102.412 1.05852072,101.692 L19.6583416,85.308 C20.4749573,84.588 22.0248607,84 23.1022445,84 L129.958328,84 C131.036692,84 132.559146,84.62 133.34047,85.378 L150.104131,101.622 Z" id="Stroke-19-3b65e6c7-56b6-433a-b696-a186a2a7d061"></path>
                </g>
                <g id="Group-3-f891342d-6b32-464b-af6f-f972b9f418f1" transform="translate(136.562909, 0.000000)" fill="#2D2D2D" stroke="#2D2D2D" stroke-width="0.2">
                    <path d="M20.3382871,9.30065934 L23.7152508,4.70736264 C24.1485795,4.11824176 24.0169142,3.29340659 23.421254,2.86516484 C22.8255937,2.43692308 21.991936,2.56747253 21.5589407,3.15626374 L18.1816437,7.74956044 C17.7486483,8.33868132 17.8803136,9.16318681 18.4759738,9.59142857 C18.7126379,9.76186813 18.9869683,9.84395604 19.2589654,9.84395604 C19.670961,9.84395604 20.0772899,9.65538462 20.3382871,9.30065934 M22.6142626,13.7812088 L28.0778706,12.0267033 C28.7781964,11.8015385 29.1618589,11.0578022 28.934528,10.3651648 C28.7065305,9.6721978 27.9555385,9.2943956 27.2545461,9.51824176 L21.7906048,11.2727473 C21.090279,11.4979121 20.7066165,12.2416484 20.9342807,12.9342857 C21.1172787,13.4917582 21.6399398,13.8461538 22.2019337,13.8461538 C22.3385989,13.8461538 22.4772641,13.8250549 22.6142626,13.7812088 M28.934528,19.6348352 C29.1618589,18.9421978 28.7781964,18.1984615 28.0778706,17.9732967 L22.6142626,16.2187912 C21.9139368,15.9936264 21.1616116,16.3730769 20.9342807,17.0657143 C20.7066165,17.7583516 21.090279,18.5024176 21.7906048,18.7272527 L27.2545461,20.4820879 C27.3912113,20.5259341 27.5298764,20.5467033 27.6665416,20.5467033 C28.2285356,20.5467033 28.7511966,20.1923077 28.934528,19.6348352 M23.421254,27.1348352 C24.0169142,26.7062637 24.1485795,25.8817582 23.7152508,25.2926374 L20.3382871,20.6996703 C19.9056251,20.1108791 19.0719674,19.9803297 18.4759738,20.4085714 C17.8803136,20.8371429 17.7486483,21.6616484 18.1816437,22.2507692 L21.5589407,26.8437363 C21.8199379,27.1987912 22.2262668,27.387033 22.6382624,27.387033 C22.9099261,27.387033 23.1845898,27.3049451 23.421254,27.1348352 M15.8333356,28.6813187 L15.8333356,23.0037363 C15.8333356,22.2754945 15.236342,21.6850549 14.5000166,21.6850549 C13.7636912,21.6850549 13.1666976,22.2754945 13.1666976,23.0037363 L13.1666976,28.6813187 C13.1666976,29.4095604 13.7636912,30 14.5000166,30 C15.236342,30 15.8333356,29.4095604 15.8333356,28.6813187 M7.4410925,26.8437363 L10.8180562,22.2507692 C11.2513849,21.6616484 11.1197196,20.8371429 10.5240593,20.4085714 C9.92873241,19.9803297 9.09474138,20.1108791 8.66174604,20.6996703 L5.28444903,25.2926374 C4.85145368,25.8817582 4.98311893,26.7062637 5.57844586,27.1348352 C5.81544331,27.3049451 6.08944037,27.387033 6.36143744,27.387033 C6.77376634,27.387033 7.18009531,27.1987912 7.4410925,26.8437363 M1.74548709,20.4820879 L7.20942832,18.7272527 C7.90975412,18.5024176 8.29308334,17.7583516 8.06575245,17.0657143 C7.83842156,16.3730769 7.08676298,15.9952747 6.38577051,16.2187912 L0.921829278,17.9732967 C0.221503476,18.1984615 -0.161825735,18.9421978 0.0655051538,19.6348352 C0.248503186,20.1923077 0.771164231,20.5467033 1.33349152,20.5467033 C1.47015671,20.5467033 1.60882189,20.5256044 1.74548709,20.4820879 M8.06575245,12.9342857 C8.29308334,12.2416484 7.90975412,11.4979121 7.20942832,11.2727473 L1.74548709,9.51824176 C1.04516128,9.29307692 0.292836042,9.6721978 0.0655051538,10.3651648 C-0.161825735,11.0578022 0.221503476,11.8015385 0.921829278,12.0267033 L6.38577051,13.7812088 C6.52276904,13.8253846 6.66143422,13.8461538 6.79776608,13.8461538 C7.35976004,13.8461538 7.88275441,13.4914286 8.06575245,12.9342857 M10.5240593,9.59142857 C11.1197196,9.16318681 11.2513849,8.33868132 10.8180562,7.74956044 L7.4410925,3.15626374 C7.00809715,2.56714286 6.17377279,2.43659341 5.57844586,2.86516484 C4.98311893,3.29340659 4.85145368,4.11824176 5.28444903,4.70736264 L8.66174604,9.30065934 C8.9224099,9.65571429 9.32873886,9.84395604 9.74106776,9.84395604 C10.0127315,9.84395604 10.2873952,9.76186813 10.5240593,9.59142857 M14.5000166,8.31527473 C13.7636912,8.31527473 13.1666976,7.72483516 13.1666976,6.99659341 L13.1666976,1.31868132 C13.1666976,0.59043956 13.7636912,0 14.5000166,0 C15.236342,0 15.8333356,0.59043956 15.8333356,1.31868132 L15.8333356,6.99659341 C15.8333356,7.72483516 15.236342,8.31527473 14.5000166,8.31527473" id="Fill-1-bc465d17-e050-4179-8528-aec0694ac34e"></path>
                </g>
            </g>
        </g>
    </g>
</symbol><symbol id="icons-minus" viewBox="0 0 20 20" xmlns:xlink="http://www.w3.org/1999/xlink">
<style type="text/css">
	.st0{fill-rule:evenodd;clip-rule:evenodd;}
</style>
<path class="st0" d="M1.3,11.3C0.6,11.3,0,10.7,0,10c0-0.7,0.6-1.3,1.3-1.3h17.3c0.7,0,1.3,0.6,1.3,1.3c0,0.7-0.6,1.3-1.3,1.3H1.3z"
	/>
</symbol><symbol id="icons-employees" viewBox="0 0 22 22">
  <path d="M2.41521739,19.3695652 C3.47002174,18.2533043 5.99308696,17.0100652 8.1015,16.2754565 L10.380413,18.2133696 C10.7376739,18.5173043 11.2625652,18.5173043 11.6198261,18.2133696 L13.8987391,16.2754565 C16.0071522,17.0100652 18.5302174,18.2533043 19.5850217,19.3695652 L2.41521739,19.3695652 Z M13.981,14.2856522 C13.6663043,14.1847391 13.3221957,14.2543261 13.0706304,14.4683478 L11,16.2290652 L8.9296087,14.4683478 C8.67804348,14.2543261 8.33393478,14.1847391 8.01923913,14.2856522 C6.6801087,14.7129783 0,17.0119783 0,20.326087 C0,20.8543261 0.428282609,21.2826087 0.956521739,21.2826087 L21.0434783,21.2826087 C21.5717174,21.2826087 22,20.8543261 22,20.326087 C22,17.0119783 15.3198913,14.7129783 13.981,14.2856522 Z M11,2.63043478 C13.4955652,2.63043478 15.5257826,4.67356522 15.5257826,7.18467391 C15.5257826,9.6965 13.4955652,11.7398696 11,11.7398696 C8.50467391,11.7398696 6.47445652,9.6965 6.47445652,7.18467391 C6.47445652,4.67356522 8.50467391,2.63043478 11,2.63043478 Z M11,13.652913 C14.5503696,13.652913 17.4388261,10.7513043 17.4388261,7.18467391 C17.4388261,3.61852174 14.5503696,0.717391304 11,0.717391304 C7.44986957,0.717391304 4.56141304,3.61852174 4.56141304,7.18467391 C4.56141304,10.7513043 7.44986957,13.652913 11,13.652913 Z"/>
</symbol><symbol id="icons-play" viewBox="0 0 60 60">
  <path fill-rule="evenodd" d="M51.9,27l-39-26.3c-2.7-1.9-6.2,0-6.2,3v52.5c0,3,3.5,4.9,6.2,3l39-26.3C53.8,31.5,53.8,28.5,51.9,27L51.9,27z"
	/>
</symbol><symbol id="icons-eye" viewBox="0 0 25 15">
    <path d="M13.0000624,12.365 C7.77706239,12.365 4.23006239,8.754 2.94806239,7.201 L2.86906239,7.106 L2.94806239,7.011 C4.22306239,5.459 7.75606239,1.851 13.0000624,1.851 C18.2210624,1.851 21.7670624,5.46 23.0490624,7.012 L23.1280624,7.108 L23.0490624,7.203 C21.7670624,8.755 18.2200624,12.365 13.0000624,12.365 M13.0000624,0 C5.44306239,0 1.12206239,6.323 0.941062388,6.593 C0.732062388,6.906 0.732062388,7.31 0.941062388,7.623 C1.12206239,7.892 5.45106239,14.215 13.0000624,14.215 C20.5380624,14.215 24.8770624,7.892 25.0590624,7.623 C25.2680624,7.31 25.2680624,6.906 25.0580624,6.593 C24.8750624,6.32 20.5420624,0 13.0000624,0 M14.7030624,9.387 C14.0980624,9.844 13.3540624,10.037 12.6050624,9.931 C11.8550624,9.825 11.1910624,9.431 10.7350624,8.823 C9.79406239,7.565 10.0460624,5.773 11.2970624,4.828 C11.9020624,4.371 12.6470624,4.178 13.3960624,4.284 C14.1460624,4.391 14.8090624,4.784 15.2640624,5.392 C16.2060624,6.65 15.9540624,8.442 14.7030624,9.387 M13.6220624,2.688 C12.4450624,2.521 11.2750624,2.824 10.3250624,3.54 L10.3250624,3.541 C8.36706239,5.02 7.97206239,7.823 9.44406239,9.79 C10.1590624,10.744 11.2010624,11.361 12.3790624,11.528 C12.5900624,11.558 12.8000624,11.573 13.0090624,11.573 C13.9670624,11.573 14.8950624,11.262 15.6740624,10.675 C17.6320624,9.196 18.0280624,6.393 16.5550624,4.426 C15.8410624,3.471 14.7990624,2.854 13.6220624,2.688"/>
</symbol><symbol id="icons-audio" viewBox="0 0 19 21">
  <path fill-rule="evenodd" d="M15.7839066,16.8816671 C15.5921443,17.0967027 15.3261983,17.2062812 15.0592826,17.2062812 C14.8294587,17.2062812 14.59915,17.1253095 14.4141757,16.9604569 C14.0141657,16.6040845 13.9790134,15.9909784 14.3353858,15.5912109 C19.0773216,10.2715638 14.5298149,4.99409956 14.3339313,4.77203345 C13.9799831,4.37105381 14.01659,3.75843255 14.4168424,3.40375709 C14.8173372,3.04932406 15.4277766,3.08423401 15.7839066,3.48327421 C15.8435444,3.55018496 21.6875682,10.2591998 15.7839066,16.8816671 Z M12.8618947,14.2869361 C12.6701324,14.5022142 12.4044289,14.6117926 12.1372707,14.6117926 C11.9076893,14.6117926 11.6771381,14.5308209 11.4921638,14.3659684 C11.0921539,14.0093535 11.0567591,13.3964898 11.413374,12.9967223 C13.828949,10.2868369 11.665259,7.65646862 11.4104648,7.36530989 C11.0589409,6.96360295 11.0967601,6.35146656 11.4970124,5.99800325 C11.8977496,5.64453994 12.506492,5.67969232 12.8618947,6.07800523 C14.1273807,7.49743438 15.7562696,11.0403101 12.8618947,14.2869361 Z M7.75776816,17.0431257 L4.39089678,13.6251015 C4.20883166,13.4418242 3.9848261,13.3341852 3.72639545,13.3341852 L1.93944204,13.3341852 L1.93944204,7.03099856 L3.72639545,7.03099856 C3.9848261,7.03099856 4.20883166,6.92335953 4.39089678,6.73983983 L7.75776816,3.32181566 L7.75776816,17.0431257 Z M9.12095348,0.0720380978 C8.75706567,-0.0777837997 8.35147985,0.0114305341 8.07486693,0.289982897 L3.32250664,5.09155653 L0.966326996,5.09155653 C0.430556133,5.09155653 0,5.51653676 0,6.0520652 L0,14.3131186 C0,14.848647 0.430556133,15.2736272 0.966326996,15.2736272 L3.32250664,15.2736272 L8.08674601,20.0749584 C8.27269002,20.2621146 8.52190832,20.3639353 8.77549037,20.3639353 C8.89985709,20.3639353 9.00119293,20.3411468 9.12095348,20.2919335 C9.484114,20.1421116 9.6972102,19.7893756 9.6972102,19.3963961 L9.6972102,0.968787611 C9.6972102,0.575808168 9.484114,0.221859995 9.12095348,0.0720380978 Z"/>
</symbol><symbol id="icons-inline-loader" viewBox="0 0 100 100">
<circle style="fill:none;stroke:#D3D3D3;stroke-width:5;" cx="50" cy="50" r="46.3"/>
<path style="fill:none;stroke:#2D2D2D;stroke-width:5;" d="M50,3.8c14.8,0,29.1,7.5,37.7,19.4">
    <animateTransform
      attributeName="transform"
      type="rotate"
      from="0 50 50"
      to="360 50 50"
      dur="1.2s"
      repeatCount="indefinite"/>
</path>
</symbol><symbol id="icons-computer-selfie" viewBox="0 0 169 135" xmlns:xlink="http://www.w3.org/1999/xlink">
    <title>F556B927-2E5D-465D-BE6F-A4833C70C576</title>
    <g id="Desktop-6e27bc65-bf9d-479c-9349-3abfbd2e27dd" stroke="none" stroke-width="1" fill="none" fill-rule="evenodd">
        <g id="Personal-Verification---Selfie---Intro-1-9c392ff5-d97d-4eb1-8ddd-8141da8c6df1" transform="translate(-613.000000, -284.000000)">
            <g id="Selfie-baf38336-dc9d-4c05-ae4e-6b236094a1e7" transform="translate(614.437091, 285.000000)">
                <g id="Group-4-4d78de03-cb34-4b98-81a5-9382f601cb3b" transform="translate(-0.000000, 29.000000)">
                    <g id="Group-5-5be97adf-6dec-43d9-ad30-55d98c77b54f" transform="translate(48.000000, 16.000000)">
                        <g id="Group-3-b85e8856-2f32-4757-9ed0-7bd078fcb624" transform="translate(11.000000, 10.500000)" fill="#2D2D2D">
                            <path d="M4.09157609,28.1162791 C5.67378261,26.4336279 9.45838043,24.5595698 12.621,23.4522209 L16.0393696,26.3734302 C16.5752609,26.8315814 17.3625978,26.8315814 17.8984891,26.3734302 L21.3168587,23.4522209 C24.4794783,24.5595698 28.2640761,26.4336279 29.8462826,28.1162791 L4.09157609,28.1162791 Z M21.44025,20.4527907 C20.9682065,20.3006744 20.4520435,20.4055698 20.0746957,20.728186 L16.96875,23.3822907 L13.863163,20.728186 C13.4858152,20.4055698 12.9696522,20.3006744 12.4976087,20.4527907 C10.488913,21.0969419 0.46875,24.5624535 0.46875,29.5581395 C0.46875,30.354407 1.11117391,31 1.90353261,31 L32.0339674,31 C32.8263261,31 33.46875,30.354407 33.46875,29.5581395 C33.46875,24.5624535 23.448587,21.0969419 21.44025,20.4527907 L21.44025,20.4527907 Z M16.96875,2.88372093 C20.7120978,2.88372093 23.7574239,5.96353488 23.7574239,9.74877907 C23.7574239,13.5351047 20.7120978,16.6152791 16.96875,16.6152791 C13.2257609,16.6152791 10.1804348,13.5351047 10.1804348,9.74877907 C10.1804348,5.96353488 13.2257609,2.88372093 16.96875,2.88372093 L16.96875,2.88372093 Z M16.96875,19.499 C22.2943043,19.499 26.6269891,15.1251163 26.6269891,9.74877907 C26.6269891,4.37316279 22.2943043,0 16.96875,0 C11.6435543,0 7.31086957,4.37316279 7.31086957,9.74877907 C7.31086957,15.1251163 11.6435543,19.499 16.96875,19.499 L16.96875,19.499 Z" id="Fill-1-fb57f408-6760-427e-9c29-44c2d9a98c8a"></path>
                        </g>
                        <circle id="Oval-5d0bc7c0-4e57-4a9d-92ee-de8ff7be8236" stroke="#2D2D2D" stroke-width="2.8" cx="28.062909" cy="27.5" r="26.1"></circle>
                    </g>
                    <g id="Group-97437a9e-6559-4990-a9b9-32a4d466c95b" stroke="#2D2D2D" stroke-width="2.8">
                        <path d="M128.8343,84 L24.1666784,84 C22.4180617,84 21,82.5846977 21,80.8382791 L21,3.16172093 C21,1.41530233 22.4180617,0 24.1666784,0 L128.8343,0 C130.582916,0 132,1.41530233 132,3.16172093 L132,80.8382791 C132,82.5846977 130.582916,84 128.8343,84 Z" id="Stroke-17-c7136cce-3cd5-44d4-8653-008adeee7e06"></path>
                        <path d="M150.104131,101.622 C150.886435,102.38 150.643313,103 149.564949,103 L1.53496161,103 C0.457577792,103 0.241904963,102.412 1.05852072,101.692 L19.6583416,85.308 C20.4749573,84.588 22.0248607,84 23.1022445,84 L129.958328,84 C131.036692,84 132.559146,84.62 133.34047,85.378 L150.104131,101.622 Z" id="Stroke-19-5468e920-c41a-4a06-80c0-3341e3d84cd2"></path>
                    </g>
                </g>
                <g id="Group-3-b85e8856-2f32-4757-9ed0-7bd078fcb624" transform="translate(136.562909, 0.000000)" fill="#2D2D2D" stroke="#2D2D2D" stroke-width="0.2">
                    <path d="M20.3382871,9.30065934 L23.7152508,4.70736264 C24.1485795,4.11824176 24.0169142,3.29340659 23.421254,2.86516484 C22.8255937,2.43692308 21.991936,2.56747253 21.5589407,3.15626374 L18.1816437,7.74956044 C17.7486483,8.33868132 17.8803136,9.16318681 18.4759738,9.59142857 C18.7126379,9.76186813 18.9869683,9.84395604 19.2589654,9.84395604 C19.670961,9.84395604 20.0772899,9.65538462 20.3382871,9.30065934 M22.6142626,13.7812088 L28.0778706,12.0267033 C28.7781964,11.8015385 29.1618589,11.0578022 28.934528,10.3651648 C28.7065305,9.6721978 27.9555385,9.2943956 27.2545461,9.51824176 L21.7906048,11.2727473 C21.090279,11.4979121 20.7066165,12.2416484 20.9342807,12.9342857 C21.1172787,13.4917582 21.6399398,13.8461538 22.2019337,13.8461538 C22.3385989,13.8461538 22.4772641,13.8250549 22.6142626,13.7812088 M28.934528,19.6348352 C29.1618589,18.9421978 28.7781964,18.1984615 28.0778706,17.9732967 L22.6142626,16.2187912 C21.9139368,15.9936264 21.1616116,16.3730769 20.9342807,17.0657143 C20.7066165,17.7583516 21.090279,18.5024176 21.7906048,18.7272527 L27.2545461,20.4820879 C27.3912113,20.5259341 27.5298764,20.5467033 27.6665416,20.5467033 C28.2285356,20.5467033 28.7511966,20.1923077 28.934528,19.6348352 M23.421254,27.1348352 C24.0169142,26.7062637 24.1485795,25.8817582 23.7152508,25.2926374 L20.3382871,20.6996703 C19.9056251,20.1108791 19.0719674,19.9803297 18.4759738,20.4085714 C17.8803136,20.8371429 17.7486483,21.6616484 18.1816437,22.2507692 L21.5589407,26.8437363 C21.8199379,27.1987912 22.2262668,27.387033 22.6382624,27.387033 C22.9099261,27.387033 23.1845898,27.3049451 23.421254,27.1348352 M15.8333356,28.6813187 L15.8333356,23.0037363 C15.8333356,22.2754945 15.236342,21.6850549 14.5000166,21.6850549 C13.7636912,21.6850549 13.1666976,22.2754945 13.1666976,23.0037363 L13.1666976,28.6813187 C13.1666976,29.4095604 13.7636912,30 14.5000166,30 C15.236342,30 15.8333356,29.4095604 15.8333356,28.6813187 M7.4410925,26.8437363 L10.8180562,22.2507692 C11.2513849,21.6616484 11.1197196,20.8371429 10.5240593,20.4085714 C9.92873241,19.9803297 9.09474138,20.1108791 8.66174604,20.6996703 L5.28444903,25.2926374 C4.85145368,25.8817582 4.98311893,26.7062637 5.57844586,27.1348352 C5.81544331,27.3049451 6.08944037,27.387033 6.36143744,27.387033 C6.77376634,27.387033 7.18009531,27.1987912 7.4410925,26.8437363 M1.74548709,20.4820879 L7.20942832,18.7272527 C7.90975412,18.5024176 8.29308334,17.7583516 8.06575245,17.0657143 C7.83842156,16.3730769 7.08676298,15.9952747 6.38577051,16.2187912 L0.921829278,17.9732967 C0.221503476,18.1984615 -0.161825735,18.9421978 0.0655051538,19.6348352 C0.248503186,20.1923077 0.771164231,20.5467033 1.33349152,20.5467033 C1.47015671,20.5467033 1.60882189,20.5256044 1.74548709,20.4820879 M8.06575245,12.9342857 C8.29308334,12.2416484 7.90975412,11.4979121 7.20942832,11.2727473 L1.74548709,9.51824176 C1.04516128,9.29307692 0.292836042,9.6721978 0.0655051538,10.3651648 C-0.161825735,11.0578022 0.221503476,11.8015385 0.921829278,12.0267033 L6.38577051,13.7812088 C6.52276904,13.8253846 6.66143422,13.8461538 6.79776608,13.8461538 C7.35976004,13.8461538 7.88275441,13.4914286 8.06575245,12.9342857 M10.5240593,9.59142857 C11.1197196,9.16318681 11.2513849,8.33868132 10.8180562,7.74956044 L7.4410925,3.15626374 C7.00809715,2.56714286 6.17377279,2.43659341 5.57844586,2.86516484 C4.98311893,3.29340659 4.85145368,4.11824176 5.28444903,4.70736264 L8.66174604,9.30065934 C8.9224099,9.65571429 9.32873886,9.84395604 9.74106776,9.84395604 C10.0127315,9.84395604 10.2873952,9.76186813 10.5240593,9.59142857 M14.5000166,8.31527473 C13.7636912,8.31527473 13.1666976,7.72483516 13.1666976,6.99659341 L13.1666976,1.31868132 C13.1666976,0.59043956 13.7636912,0 14.5000166,0 C15.236342,0 15.8333356,0.59043956 15.8333356,1.31868132 L15.8333356,6.99659341 C15.8333356,7.72483516 15.236342,8.31527473 14.5000166,8.31527473" id="Fill-1-fb57f408-6760-427e-9c29-44c2d9a98c8a"></path>
                </g>
            </g>
        </g>
    </g>
</symbol><symbol id="icons-caret-right" viewBox="0 0 10 17">
<path fill-rule="evenodd" d="M1.7,0.6c0.3,0,0.6,0.1,0.9,0.4l6.5,6.6c0.5,0.5,0.5,1.3,0,1.7L2.6,16c-0.5,0.5-1.3,0.5-1.8,0
	c-0.5-0.5-0.5-1.3,0-1.8l5.6-5.8L0.9,2.7C0.4,2.2,0.4,1.5,0.9,1C1.1,0.7,1.4,0.6,1.7,0.6"/>
</symbol><symbol id="icons-id-front" viewBox="0 0 62 39">
  <path d="M56.1,1c3.1,0,5.6,2.4,5.6,5.2v27.3c0,2.9-2.5,5.2-5.6,5.2
	H6.4c-3.1,0-5.6-2.4-5.6-5.2V6.3C0.9,3.4,3.3,1,6.4,1H56.1z M56.1,3.8H6.4c-1.5,0-2.8,1.1-2.8,2.4v27.3c0,1.3,1.2,2.4,2.8,2.4l18,0
	c1.1-4.2,8.8-7.1,11.4-8l0.3-0.1c0.1,0,0.2-0.1,0.2-0.1c0.5-0.2,1,0,1.4,0.3l0,0l3.1,2.7l3.1-2.7c0.4-0.3,0.9-0.4,1.4-0.3
	c0.1,0,0.1,0,0.2,0.1l0.3,0.1c2.6,0.9,10.1,3.7,11.3,7.8c1-0.4,1.8-1.2,1.8-2.3V6.3C58.9,4.9,57.6,3.8,56.1,3.8z M45.1,30.9
	l-3.4,2.9c-0.5,0.5-1.3,0.5-1.9,0l0,0l-3.4-2.9c-3.2,1.1-6.9,3-8.5,4.7l0,0h25.8C52,33.9,48.3,32,45.1,30.9L45.1,30.9z M40.8,7.4
	c5.3,0,9.7,4.4,9.7,9.7s-4.3,9.8-9.7,9.8s-9.7-4.4-9.7-9.8S35.4,7.4,40.8,7.4z M19.8,23.5c0.8,0,1.4,0.6,1.4,1.4
	c0,0.8-0.6,1.4-1.4,1.4h-9c-0.8,0-1.4-0.6-1.4-1.4c0-0.8,0.6-1.4,1.4-1.4H19.8z M40.8,10.3c-3.7,0-6.8,3.1-6.8,6.9
	c0,3.8,3,6.9,6.8,6.9s6.8-3.1,6.8-6.9C47.5,13.4,44.5,10.3,40.8,10.3z M24.8,18c0.8,0,1.4,0.6,1.4,1.4c0,0.8-0.6,1.4-1.4,1.4H10.7
	c-0.8,0-1.4-0.6-1.4-1.4c0-0.8,0.6-1.4,1.4-1.4H24.8z M24.8,12.5c0.8,0,1.4,0.6,1.4,1.4c0,0.8-0.6,1.4-1.4,1.4H10.7
	c-0.8,0-1.4-0.6-1.4-1.4c0-0.8,0.6-1.4,1.4-1.4H24.8z"/>
</symbol><symbol id="icons-seably" viewBox="0 0 84 25">
  <path fill-rule="evenodd" d="M75.1917204,18.6881204 L69.28224,5.27063031 L73.0222042,5.27063031 L76.9903291,14.8910575 L80.6444113,5.27063031 L84.013,5.27063031 L76.0849405,24.8007224 L72.6873344,24.8007224 L75.1917204,18.6881204 Z M63.3189371,20.2012357 L66.7731738,20.2012357 L66.7731738,5.68434189e-14 L63.3189371,5.68434189e-14 L63.3189371,20.2012357 Z M57.373653,12.8357387 L57.373653,12.607344 C57.373653,9.29585394 55.6609263,7.66854128 53.405528,7.66854128 C51.007383,7.66854128 49.2946564,9.29585394 49.2946564,12.607344 L49.2946564,12.8357387 C49.2946564,16.1760121 50.921969,17.745992 53.4340774,17.745992 C55.9749691,17.745992 57.373653,16.0330313 57.373653,12.8357387 L57.373653,12.8357387 Z M49.4088537,17.8030907 L49.4088537,20.2012357 L45.954617,20.2012357 L45.954617,5.68434189e-14 L49.4088537,5.68434189e-14 L49.4088537,7.66854128 C50.2365507,6.24107403 52.0922582,4.9563535 54.2905577,4.9563535 C58.0302879,4.9563535 60.9135377,7.72563997 60.9135377,12.5502453 L60.9135377,12.77864 C60.9135377,17.574696 58.1444853,20.4867292 54.2905577,20.4867292 C51.9211961,20.4867292 50.2080014,19.316206 49.4088537,17.8030907 L49.4088537,17.8030907 Z M39.6959921,14.9769396 L39.6959921,13.4923736 L37.9259328,13.4923736 C35.299627,13.4923736 33.6154497,14.0916759 33.6154497,15.918834 C33.6154497,17.1750051 34.3004,18.0029361 36.0133607,18.0029361 C38.1257782,18.0029361 39.6959921,16.8895117 39.6959921,14.9769396 L39.6959921,14.9769396 Z M30.1895283,16.0615807 C30.1895283,12.5787946 33.558117,11.3226234 37.8405187,11.3226234 L39.6959921,11.3226234 L39.6959921,10.5517911 C39.6959921,8.55357097 39.0108079,7.5543439 36.9840384,7.5543439 C35.1854296,7.5543439 34.3004,8.41082425 34.1291039,9.89515618 L30.7890645,9.89515618 C31.074558,6.4123701 33.8438444,4.9563535 37.1838838,4.9563535 C40.5239232,4.9563535 43.1504629,6.32672206 43.1504629,10.4092784 L43.1504629,20.2012357 L39.7530908,20.2012357 L39.7530908,18.3740776 C38.7826471,19.6585641 37.4693772,20.4867292 35.1854296,20.4867292 C32.4449265,20.4867292 30.1895283,19.1734593 30.1895283,16.0615807 L30.1895283,16.0615807 Z M24.9851231,11.1798767 C24.813827,8.61066966 23.5005572,7.46869586 21.3595903,7.46869586 C19.2754881,7.46869586 17.8768042,8.86761377 17.5342121,11.1798767 L24.9851231,11.1798767 Z M13.9369946,12.8928374 L13.9369946,12.6644426 C13.9369946,8.03968276 17.1059719,4.9563535 21.3595903,4.9563535 C25.0707711,4.9563535 28.4108105,7.15465307 28.4108105,12.4931466 L28.4108105,13.4923736 L17.4771134,13.4923736 C17.5910767,16.3185248 19.018544,17.9172881 21.587985,17.9172881 C23.6718532,17.9172881 24.7567283,17.0893571 25.0136724,15.6333405 L28.3537118,15.6333405 C27.8683729,18.7737685 25.3277152,20.4867292 21.502337,20.4867292 C17.1059719,20.4867292 13.9369946,17.6032453 13.9369946,12.8928374 L13.9369946,12.8928374 Z M0,15.5476925 L3.0203803,15.5476925 C3.19167637,17.0608078 3.96250868,17.9458375 5.98927817,17.9458375 C7.84498559,17.9458375 8.6729166,17.2892025 8.6729166,16.0330313 C8.6729166,14.8056435 7.67368952,14.348854 5.47562397,13.9777125 C1.53581435,13.3496269 0.313808784,12.2362025 0.313808784,9.43860067 C0.313808784,6.44091944 2.87763357,4.9563535 5.67546938,4.9563535 C8.73001529,4.9563535 11.1564756,6.0983273 11.5276171,9.46715001 L8.33032446,9.46715001 C8.04483101,8.09678145 7.27399869,7.46869586 5.67546938,7.46869586 C4.19090344,7.46869586 3.30587375,8.18242949 3.30587375,9.23875525 C3.30587375,10.3233964 4.01960737,10.7516365 6.388969,11.1513274 C9.90053843,11.6937649 11.9844066,12.5502453 11.9844066,15.7189885 C11.9844066,18.7452191 9.84343974,20.4867292 6.01782751,20.4867292 C2.16389995,20.4867292 0.142512714,18.7166698 0,15.5476925 L0,15.5476925 Z" />
</symbol><symbol id="icons-builder" viewBox="0 0 20 20">
  <path d="M1.16351373e-13,1.10555556 C1.16351373e-13,0.495555556 0.497222222,0 1.10777778,0 L7.78111111,0 C8.39277778,0 8.88888889,0.498888889 8.88888889,1.10555556 L8.88888889,10.0055556 C8.88888889,10.6161111 8.39166667,11.1111111 7.78111111,11.1111111 L1.10777778,11.1111111 C0.497214531,11.1101976 0.0021395007,10.6161157 1.17338238e-13,10.0055556 L1.17338238e-13,1.10555556 Z M11.1111111,9.99444444 C11.1111111,9.38388889 11.6083333,8.88888889 12.2188889,8.88888889 L18.8922222,8.88888889 C19.5038889,8.88888889 20,9.38777778 20,9.99444444 L20,18.8944444 C20,19.505 19.5027778,20 18.8922222,20 L12.2188889,20 C11.6083256,19.9990865 11.1132506,19.5050046 11.1111111,18.8944444 L11.1111111,9.99444444 Z M2.22222222,2.22222222 L2.22222222,8.88888889 L6.66666667,8.88888889 L6.66666667,2.22222222 L2.22222222,2.22222222 Z M13.3333333,11.1111111 L13.3333333,17.7777778 L17.7777778,17.7777778 L17.7777778,11.1111111 L13.3333333,11.1111111 Z M1.15971278e-13,14.4494444 C1.15971278e-13,13.8327778 0.497222222,13.3333333 1.10777778,13.3333333 L7.78111111,13.3333333 C8.39277778,13.3333333 8.88888889,13.8344444 8.88888889,14.4494444 L8.88888889,18.8838889 C8.88888889,19.5005556 8.39166667,20 7.78111111,20 L1.10777778,20 C0.493858205,19.9972442 -0.00184520372,19.4978119 1.16464709e-13,18.8838889 L1.16464709e-13,14.45 L1.15971278e-13,14.4494444 Z M2.22222222,15.5555556 L2.22222222,17.7777778 L6.66666667,17.7777778 L6.66666667,15.5555556 L2.22222222,15.5555556 Z M11.1111111,1.11611111 C11.1111111,0.499444444 11.6083333,0 12.2188889,0 L18.8922222,0 C19.5038889,0 20,0.501111111 20,1.11611111 L20,5.55055556 C20,6.16722222 19.5027778,6.66666667 18.8922222,6.66666667 L12.2188889,6.66666667 C11.6049693,6.66391091 11.1092659,6.16447854 11.1111111,5.55055556 L11.1111111,1.11666667 L11.1111111,1.11611111 Z M13.3333333,2.22222222 L13.3333333,4.44444444 L17.7777778,4.44444444 L17.7777778,2.22222222 L13.3333333,2.22222222 Z"/>
</symbol><symbol id="icons-checkmark" viewBox="0 0 16 14">
  <path d="M5.24202193,13.3444541 C4.94489061,13.3444541 4.65505726,13.2099631 4.44550149,12.9774709 L4.44237379,12.9753858 L0.306514409,8.27758331 C-0.10217147,7.8115563 -0.10217147,7.08280266 0.306514409,6.61781821 C0.513985046,6.38115573 0.80590353,6.24666471 1.10720511,6.24666471 L1.10824767,6.24666471 C1.40954925,6.24666471 1.70042517,6.38219829 1.90789581,6.61677565 L5.24202193,10.4065031 L14.0934074,0.353039025 C14.505221,-0.117158248 15.2777624,-0.118200814 15.6927037,0.353039025 C16.1024321,0.8201086 16.1024321,1.54886225 15.6927037,2.01280412 L6.04167006,12.9753858 C5.83628456,13.2089206 5.54436607,13.3444541 5.24202193,13.3444541"/>
</symbol><symbol id="icons-video" viewBox="0 0 22 22">
  <path fill-rule="evenodd" d="M18.903,10.1857679 C19.181,10.3617679 19.353,10.6727679 19.353,10.9987679 C19.353,11.3317679 19.179,11.6427679 18.9,11.8137679 L6.118,19.8027679 C5.958,19.9007679 5.779,19.9497679 5.601,19.9497679 C5.444,19.9497679 5.289,19.9117679 5.148,19.8347679 C4.838,19.6607679 4.647,19.3377679 4.647,18.9917679 L4.647,3.00676791 C4.647,2.65776791 4.837,2.33576791 5.142,2.16676791 C5.44,2.00176791 5.832,2.01276791 6.118,2.19476791 L18.903,10.1857679 Z M6.566,4.73946791 L6.566,17.2594679 L16.582,11.0004679 L6.566,4.73946791 Z"/>
</symbol><symbol id="icons-assignments" viewBox="0 0 18 20">
  <path d="M13.4438889,5.55555556 L8.27555556,5.55555556 C5.20722222,5.55555556 2.72222222,8.04222222 2.72222222,11.1116667 L2.72222222,15.5555556 C2.72222222,16.1738889 2.225,16.6666667 1.61111111,16.6666667 C0.993333333,16.6666667 0.5,16.1694444 0.5,15.5561111 L0.5,11.1116667 C0.5,6.81555556 3.97944444,3.33333333 8.275,3.33333333 L13.4594444,3.33333333 L12.21,2.08222222 C11.9211594,1.80325059 11.8053193,1.39013568 11.9070032,1.00165853 C12.008687,0.613181383 12.3120703,0.309798093 12.7005474,0.20811427 C13.0890246,0.106430448 13.5021395,0.222270462 13.7811111,0.511111111 L16.9166667,3.64722222 C17.1366667,3.86722222 17.2444444,4.15111111 17.2444444,4.43555556 C17.2461111,4.72 17.1383333,5.00388889 16.92,5.22222222 L13.7805556,8.36111111 C13.5015839,8.64995176 13.088469,8.76579177 12.6999919,8.66410795 C12.3115147,8.56242413 12.0081314,8.25904084 11.9064476,7.87056369 C11.8047638,7.48208655 11.9206038,7.06897163 12.2094444,6.79 L13.4438889,5.55555556 Z M9,10 L15,10 C16.1045695,10 17,10.8954305 17,12 L17,18 C17,19.1045695 16.1045695,20 15,20 L9,20 C7.8954305,20 7,19.1045695 7,18 L7,12 C7,10.8954305 7.8954305,10 9,10 Z M9,12 L9,18 L15,18 L15,12 L9,12 Z"/>
</symbol><symbol id="icons-close" viewBox="0 0 14 14">
  <path fill-rule="evenodd" d="M5.47822771,6.95604968 L0.306821753,1.78464373 C-0.103196862,1.37462511 -0.101349931,0.715270851 0.306821753,0.307099167 C0.71757914,-0.10365822 1.37619463,-0.101072517 1.78436631,0.307099167 L6.95577226,5.47850512 L12.1271782,0.307099167 C12.5353499,-0.101072517 13.1939654,-0.10365822 13.6047228,0.307099167 C14.0128945,0.715270851 14.0147414,1.37462511 13.6047228,1.78464373 L8.43331682,6.95604968 L13.6047228,12.1274556 C14.0147414,12.5374742 14.0128945,13.1968285 13.6047228,13.6050002 C13.1939654,14.0157576 12.5353499,14.0131719 12.1271782,13.6050002 L6.95577226,8.43359424 L1.78436631,13.6050002 C1.37619463,14.0131719 0.71757914,14.0157576 0.306821753,13.6050002 C-0.101349931,13.1968285 -0.103196862,12.5374742 0.306821753,12.1274556 L5.47822771,6.95604968 Z"/>
</symbol><symbol id="icons-bookmark" viewBox="0 0 13 19">
  <path fill-rule="evenodd" d="M11.1891242,14.7531874 L7.61228784,10.6204817 C7.24430418,10.193261 6.50569582,10.1941329 6.14035319,10.6187379 L2.56175611,14.7531874 L2.56175611,2.61227449 L11.1891242,2.61227449 L11.1891242,14.7531874 Z M12.1575023,0.69326916 L1.59337805,0.69326916 C1.05988978,0.69326916 0.625,1.12310543 0.625,1.65233589 L0.625,17.3461551 C0.625,17.7463475 0.880299669,18.1073053 1.25884745,18.2450621 C1.63827558,18.3845628 2.0678833,18.2729623 2.32934538,17.9695484 L6.87544017,12.7156065 L11.4259367,17.9739078 C11.6116892,18.1849025 11.8784333,18.3043499 12.1575023,18.3043499 C12.2728273,18.3043499 12.3863916,18.2851686 12.4946739,18.2450621 C12.8723414,18.1055615 13.125,17.7446037 13.125,17.3461551 L13.125,1.65233589 C13.125,1.12310543 12.6909906,0.69326916 12.1575023,0.69326916 Z" transform="translate(-.375 -.111)"/>
</symbol><symbol id="icons-time" viewBox="0 0 34 34">
  <path fill-rule="evenodd" d="M28.4702188,5.52978125 C31.5344688,8.59296875 33.2217188,12.6655313 33.2217188,16.9994688 C33.2217188,21.3344688 31.5344688,25.4080938 28.4702188,28.4702188 C25.4059688,31.5334063 21.3323438,33.2206563 16.9994688,33.2206563 C12.6634063,33.2206563 8.58978125,31.5334063 5.52871875,28.4702188 C2.46446875,25.4049063 0.77828125,21.3312813 0.77828125,16.9994688 C0.77828125,12.6655313 2.46446875,8.59296875 5.52871875,5.52978125 C8.59296875,2.46659375 12.6665938,0.77934375 16.9994688,0.77934375 C21.3344688,0.77934375 25.4080938,2.46659375 28.4702188,5.52978125 Z M16.999575,3.49296875 C9.55145,3.49296875 3.4920125,9.55240625 3.4920125,17.0005313 C3.4920125,24.4486563 9.55145,30.5080938 16.999575,30.5080938 C24.4477,30.5080938 30.5071375,24.4486563 30.5071375,17.0005313 C30.5071375,9.55240625 24.4477,3.49296875 16.999575,3.49296875 Z M26.7560875,11.3662 C26.937775,11.678575 26.9855875,12.044075 26.89315,12.3936375 C26.79965,12.7442625 26.5744,13.0375125 26.2609625,13.2192 L17.6780875,18.1736375 C17.5867125,18.2246375 17.536775,18.24695 17.4889625,18.2650125 C17.4592125,18.2777625 17.41565,18.291575 17.383775,18.2968875 C17.3699625,18.300075 17.3434,18.30645 17.311525,18.3138875 L17.31365,18.321325 C17.2913375,18.3266375 17.175525,18.346825 17.1532125,18.34895 C17.1000875,18.3542625 17.05015,18.35745 17.0023375,18.35745 C16.984275,18.35745 16.9067125,18.3542625 16.88865,18.3521375 L16.7537125,18.334075 C16.7218375,18.3277 16.66765,18.3138875 16.6379,18.3011375 C16.610275,18.2937 16.5114625,18.26395 16.4859625,18.2512 C16.465775,18.2416375 16.3648375,18.1970125 16.3457125,18.1842625 C16.342525,18.1821375 16.32765,18.172575 16.308525,18.16195 L16.3064,18.16195 C16.26815,18.138575 16.2139625,18.1067 16.2075875,18.10245 C16.1884625,18.0865125 16.1693375,18.0716375 16.1534,18.053575 L9.457525,13.37645 C9.160025,13.1682 8.9624,12.85795 8.89865,12.50095 C8.8359625,12.14395 8.91565,11.784825 9.1239,11.4862625 C9.3310875,11.189825 9.6424,10.9911375 9.9994,10.92845 C10.358525,10.8615125 10.71765,10.94545 11.0140875,11.1537 L17.069275,15.3941375 L24.9030875,10.871075 C25.216525,10.6893875 25.5809625,10.641575 25.93265,10.735075 C26.2822125,10.828575 26.5744,11.0527625 26.7560875,11.3662 Z"/>
</symbol><symbol id="icons-server-error" viewBox="0 0 34 34">
	<path d="M29.3,10.9v17.2c0,3.4-5.9,5.2-11.8,5.2c-3.4,0-6.8-0.6-9.1-1.8l0,0l2.4-2.4
		c1.5,0.6,3.7,1.1,6.7,1.1c5.7,0,8.7-1.8,8.7-2.6l0,0v-6.6c-2.3,1.2-5.5,1.8-8.7,1.8c-0.1,0-0.2,0-0.3,0l0,0l1.9-1.9
		c4.6-0.3,7.1-1.9,7.1-2.5l0,0V14L29.3,10.9z"/>
	<path d="M30.9,1c0.6-0.6,1.6-0.6,2.2,0c0.6,0.6,0.6,1.6,0,2.2l0,0L3.1,32.9
		c-0.3,0.3-0.7,0.4-1.1,0.4c-0.4,0-0.8-0.2-1.1-0.5c-0.6-0.6-0.6-1.6,0-2.2l0,0L30.9,1z"/>
	<path d="M17.5,2.6c2.4,0,4.8,0.3,6.8,0.9l0,0l-2.6,2.5c-1.2-0.2-2.6-0.4-4.3-0.4
		c-5.8,0-8.7,1.8-8.7,2.6c0,0.7,2.8,2.5,8.2,2.6l0,0l-2.7,2.7c-2.1-0.3-4-0.8-5.5-1.6l0,0v6.7c0,0.1,0,0.2,0.1,0.3l0,0L5.7,22V8.1
		c0,0,0,0,0,0c0,0,0-0.1,0-0.1C5.7,4.4,11.6,2.6,17.5,2.6z"/>
</symbol><symbol id="icons-explore" viewBox="0 0 24 23">
	<path fill-rule="evenodd" d="M20.3,13c-0.4,3.3-2.5,6-5.4,7.3c1.1-1.9,1.9-4.6,2-7.3H20.3z
						 M20.3,10.7c-0.4-3.3-2.5-6-5.4-7.3c1.1,1.9,1.8,4.5,2,7.3H20.3z M2.1,10.7c0.4-3.3,2.5-6,5.4-7.3c-1.1,1.9-1.8,4.5-2,7.3H2.1
						L2.1,10.7z M2.1,13c0.4,3.3,2.5,6,5.4,7.3c-1.1-1.9-1.9-4.6-2-7.3H2.1z M7.8,13c0.1,2.1,0.7,4,1.5,5.6c0.7,1.5,1.6,2.4,1.9,2.4
						c0.3,0,1.2-0.9,1.9-2.4c0.8-1.6,1.3-3.6,1.5-5.6H7.8L7.8,13z M7.8,10.7c0.1-2.1,0.7-4,1.5-5.6c0.7-1.5,1.6-2.4,1.9-2.4
						c0.3,0,1.2,0.9,1.9,2.4c0.8,1.6,1.3,3.6,1.5,5.6H7.8L7.8,10.7z M11.2,23.3c6.3,0,11.5-5.1,11.5-11.5S17.5,0.4,11.2,0.4
						S-0.3,5.5-0.3,11.9S4.8,23.3,11.2,23.3z"/>
</symbol><symbol id="icons-reports" viewBox="0 0 18 24">
  <path d="M3.50061534,21.689392 L3.50061534,15.1006054 C3.50061534,14.233012 2.79695598,13.5293527 1.92936258,13.5293527 C1.06176918,13.5293527 0.358109817,14.233012 0.358109817,15.1006054 L0.358109817,21.689392 C0.358109817,22.5569854 1.06176918,23.2606448 1.92936258,23.2606448 C2.79695598,23.2606448 3.50061534,22.5569854 3.50061534,21.689392 M10.5720384,21.689392 L10.5720384,8.70482109 C10.5720384,7.83722769 9.86837903,7.13356833 9.00078563,7.13356833 C8.13293035,7.13356833 7.42953287,7.83722769 7.42953287,8.70482109 L7.42953287,21.689392 C7.42953287,22.5569854 8.13293035,23.2606448 9.00078563,23.2606448 C9.86837903,23.2606448 10.5720384,22.5569854 10.5720384,21.689392 M16.0706374,23.2606448 C15.203044,23.2606448 14.4993847,22.5569854 14.4993847,21.689392 L14.4993847,2.31060798 C14.4993847,1.44301458 15.203044,0.739355216 16.0706374,0.739355216 C16.9382308,0.739355216 17.6418902,1.44301458 17.6418902,2.31060798 L17.6418902,21.689392 C17.6418902,22.5569854 16.9382308,23.2606448 16.0706374,23.2606448"/>
</symbol><symbol id="icons-dashboard" viewBox="0 0 22 21">
  <path d="M9.04599325,13.8328751 L9.04599325,18.6948751 L12.9549932,18.6958751 L12.9549932,13.8308751 L9.04599325,13.8328751 Z M10.9999932,2.78587512 L4.28399325,9.49687512 L4.28399325,9.51787512 C4.28299325,10.4178751 4.28299325,12.6988751 4.28299325,14.7568751 L4.28399325,18.3258751 C4.28399325,18.6938751 4.28399325,18.6938751 4.33499325,18.6938751 L7.23999325,18.6938751 L7.23999325,12.9278751 C7.23999325,12.4318751 7.64499325,12.0268751 8.14099325,12.0268751 L13.8599932,12.0268751 C14.0999932,12.0268751 14.3259932,12.1208751 14.4969932,12.2908751 C14.6659932,12.4618751 14.7599932,12.6868751 14.7599932,12.9278751 L14.7599932,18.6968751 L14.8099932,18.6968751 C16.4789932,18.6968751 17.6329932,18.6978751 17.6649932,18.6988751 L17.6669932,18.6488751 L17.7169932,18.6488751 L17.7169932,9.49587512 L10.9999932,2.78587512 Z M21.5059932,11.2908751 C21.4139932,11.6408751 21.1399932,11.9148751 20.7899932,12.0068751 C20.4369932,12.0978751 20.0659932,11.9928751 19.8149932,11.7328751 L19.6209932,11.5408751 L19.6209932,18.6478751 C19.6209932,19.1628751 19.4119932,19.6658751 19.0479932,20.0288751 C18.6799932,20.3958751 18.1909932,20.5988751 17.6699932,20.5988751 L17.6659932,20.5988751 L4.33499325,20.5988751 L4.33099325,20.5988751 C3.81099325,20.5988751 3.32099325,20.3958751 2.95299325,20.0288751 C2.58899325,19.6668751 2.37999325,19.1628751 2.37899325,18.6478751 L2.37899325,11.5398751 L2.18499325,11.7328751 C1.93399325,11.9948751 1.56099325,12.0968751 1.21099325,12.0068751 C0.860993247,11.9148751 0.586993247,11.6408751 0.493993247,11.2908751 C0.402993247,10.9408751 0.507993247,10.5668751 0.767993247,10.3148751 L10.2919932,0.79287512 C10.6819932,0.40287512 11.3169932,0.40187512 11.7089932,0.79287512 L21.2329932,10.3158751 C21.4919932,10.5658751 21.5969932,10.9398751 21.5059932,11.2908751 Z"/>
</symbol><symbol id="icons-complete-circle" viewBox="0 0 24 24">
  <path fill-rule="evenodd" d="M12,0.5c6.3,0,11.5,5.2,11.5,11.5S18.3,23.5,12,23.5S0.5,18.3,0.5,12S5.7,0.5,12,0.5z M12,2.4
		c-5.3,0-9.6,4.3-9.6,9.6s4.3,9.6,9.6,9.6s9.6-4.3,9.6-9.6S17.3,2.4,12,2.4z M16.8,7.6c0.3-0.4,0.9-0.4,1.2,0c0.3,0.4,0.3,0.9,0,1.3
		l0,0l-7.5,8.6c-0.2,0.2-0.4,0.3-0.6,0.3c-0.2,0-0.5-0.1-0.6-0.3l0,0l0,0L6,13.8c-0.3-0.4-0.3-0.9,0-1.3c0.2-0.2,0.4-0.3,0.6-0.3
		l0,0l0.1,0c0.2,0,0.4,0.1,0.5,0.3l0,0l2.6,3L16.8,7.6z"/>
</symbol><symbol id="icons-add-block" viewBox="0 0 12 12">
  <path fill-rule="evenodd" d="M7,5 L12,5 L12,7 L7,7 L7,12 L5,12 L5,7 L0,7 L1.2246468e-16,5 L5,5 L5,0 L7,0 L7,5 Z"/>
</symbol><symbol id="icons-camera-disabled" viewBox="0 0 38 30">
  <path d="M36.9,1.3c0.4,0.5,0.3,1.2-0.2,1.5l-34,26C2.5,29,2.2,29.1,2,29.1
    c-0.3,0-0.7-0.1-0.9-0.4c-0.4-0.5-0.3-1.2,0.2-1.5l34-26C35.8,0.8,36.5,0.9,36.9,1.3z"/>
  <path d="M31.9,9.2c0.2,0.2,0.3,0.4,0.3,0.7l0,0v14.4c0,0.6-0.5,1.1-1.2,1.1l0,0H10.7
    l2.9-2.3h16.3V11.1h-0.4L31.9,9.2z"/>
  <path d="M25.3,14.2c0.1,0.5,0.2,0.9,0.2,1.4c0,3.6-3,6.5-6.7,6.5
    c-1.1,0-2.1-0.3-3-0.7l0,0l2.1-1.6c0.3,0.1,0.6,0.1,0.9,0.1c2.3,0,4.2-1.8,4.3-4.1l0,0L25.3,14.2z"/>
  <path d="M24.2,3.5c0.5,0,1,0.4,1.1,0.9l0,0l0.4,1.4l-2,1.5l-0.4-1.5h-8.9l-1.2,4.5
    c-0.1,0.5-0.6,0.9-1.1,0.9l0,0H7.8v8.3l-2.3,1.8V9.9c0-0.6,0.5-1.1,1.2-1.1l0,0h4.5l1.2-4.5c0.1-0.5,0.6-0.9,1.1-0.9l0,0H24.2z"/>
  <path d="M18.9,9.1c0.7,0,1.4,0.1,2,0.3l0,0l-2.6,2c-1.6,0.2-2.9,1.2-3.5,2.7l0,0
    l-2.6,2c0-0.1,0-0.3,0-0.4C12.2,12.1,15.2,9.1,18.9,9.1z"/>
</symbol><symbol id="icons-mask-rectangle" viewBox="0 0 100 100">
  <polyline points="20,15 5,15 5,30" />
  <polyline points="80,85 95,85 95,70" />
  <polyline points="20,85 5,85 5,70" />
  <polyline points="80,15 95,15 95,30" />
</symbol><symbol id="icons-list" viewBox="0 0 23 15">
  <path fill-rule="evenodd" d="M21.1913278,14.6512688 L6.54286681,14.6512688 C5.8970757,14.6512688 5.37295538,14.1283184 5.37295538,13.4813574 C5.37295538,12.8343964 5.8970757,12.311446 6.54286681,12.311446 L21.1913278,12.311446 C21.8382889,12.311446 22.3612393,12.8343964 22.3612393,13.4813574 C22.3612393,14.1283184 21.8382889,14.6512688 21.1913278,14.6512688 Z M21.1913278,8.49554584 L6.54286681,8.49554584 C5.8970757,8.49554584 5.37295538,7.97259543 5.37295538,7.32563441 C5.37295538,6.6798433 5.8970757,6.15572298 6.54286681,6.15572298 L21.1913278,6.15572298 C21.8382889,6.15572298 22.3612393,6.6798433 22.3612393,7.32563441 C22.3612393,7.97259543 21.8382889,8.49554584 21.1913278,8.49554584 Z M21.1913278,2.33982286 L6.54286681,2.33982286 C5.8970757,2.33982286 5.37295538,1.81570254 5.37295538,1.16991143 C5.37295538,0.524120321 5.8970757,0 6.54286681,0 L21.1913278,0 C21.8382889,0 22.3612393,0.524120321 22.3612393,1.16991143 C22.3612393,1.81570254 21.8382889,2.33982286 21.1913278,2.33982286 Z M1.75486715,14.6512688 L1.16991143,14.6512688 C0.524120321,14.6512688 1.77635684e-15,14.1283184 1.77635684e-15,13.4813574 C1.77635684e-15,12.8343964 0.524120321,12.311446 1.16991143,12.311446 L1.75486715,12.311446 C2.40065826,12.311446 2.92477858,12.8343964 2.92477858,13.4813574 C2.92477858,14.1283184 2.40065826,14.6512688 1.75486715,14.6512688 Z M1.75486715,8.49554584 L1.16991143,8.49554584 C0.524120321,8.49554584 1.77635684e-15,7.97259543 1.77635684e-15,7.32563441 C1.77635684e-15,6.6798433 0.524120321,6.15572298 1.16991143,6.15572298 L1.75486715,6.15572298 C2.40065826,6.15572298 2.92477858,6.6798433 2.92477858,7.32563441 C2.92477858,7.97259543 2.40065826,8.49554584 1.75486715,8.49554584 Z M1.75486715,2.33982286 L1.16991143,2.33982286 C0.524120321,2.33982286 1.77635684e-15,1.81570254 1.77635684e-15,1.16991143 C1.77635684e-15,0.524120321 0.524120321,0 1.16991143,0 L1.75486715,0 C2.40065826,0 2.92477858,0.524120321 2.92477858,1.16991143 C2.92477858,1.81570254 2.40065826,2.33982286 1.75486715,2.33982286 Z"/>
</symbol><symbol id="icons-broken-link" viewBox="0 0 50 50">
	<path d="M35.3,22.1c0.5,0,0.8,0.1,1.1,0.4l0,0L49,35.2c0.3,0.3,0.5,0.8,0.5,1.2c0,0.5-0.2,0.9-0.5,1.2
		l0,0L37.7,49c-0.7,0.7-1.8,0.7-2.5,0l0,0L22.5,36.3c-0.7-0.7-0.7-1.8,0-2.5c0.3-0.3,0.8-0.5,1.2-0.5c0.5,0,0.9,0.2,1.3,0.5l0,0
		l11.4,11.4l8.9-8.8L34.4,25.7h-2.4c-1,0-1.8-0.8-1.8-1.8c0-1,0.8-1.8,1.8-1.8l0,0L35.3,22.1z M16.9,37.7c1,0,1.8,0.8,1.8,1.8l0,0
		v5.4c0,1-0.8,1.8-1.8,1.8s-1.8-0.8-1.8-1.8l0,0v-5.4C15.1,38.5,15.9,37.7,16.9,37.7z M10.2,31.4c1,0,1.8,0.8,1.8,1.8
		c0,1-0.8,1.8-1.8,1.8l0,0H4.8c-1,0-1.8-0.8-1.8-1.8c0-1,0.8-1.8,1.8-1.8l0,0H10.2z M13.6,0.5c0.4,0,0.9,0.2,1.2,0.5l0,0l12.7,12.7
		c0.7,0.7,0.7,1.8,0,2.5c-0.7,0.7-1.8,0.7-2.5,0l0,0L13.6,4.7l-8.9,8.8l10.9,10.8h2.4c1,0,1.8,0.8,1.8,1.8c0,1-0.8,1.8-1.8,1.8l0,0
		l-3.3,0.1c-0.5,0-0.8-0.1-1.1-0.4l0,0L1,14.8c-0.3-0.3-0.5-0.8-0.5-1.2c0-0.5,0.2-0.9,0.5-1.2l0,0L12.3,1
		C12.7,0.7,13.1,0.5,13.6,0.5z M44.9,15.1c1,0,1.8,0.8,1.8,1.8c0,1-0.8,1.8-1.8,1.8l0,0h-5.4c-1,0-1.8-0.8-1.8-1.8
		c0-1,0.8-1.8,1.8-1.8l0,0H44.9z M33.1,3c1,0,1.8,0.8,1.8,1.8l0,0v5.4c0,1-0.8,1.8-1.8,1.8s-1.8-0.8-1.8-1.8l0,0V4.8
		C31.4,3.8,32.2,3,33.1,3z"/>
	<path d="M35.3,22.1c0.5,0,0.8,0.1,1.1,0.4l0,0L49,35.2c0.3,0.3,0.5,0.8,0.5,1.2c0,0.5-0.2,0.9-0.5,1.2l0,0L37.7,49
		c-0.7,0.7-1.8,0.7-2.5,0l0,0L22.5,36.3c-0.7-0.7-0.7-1.8,0-2.5c0.3-0.3,0.8-0.5,1.2-0.5c0.5,0,0.9,0.2,1.3,0.5l0,0l11.4,11.4
		l8.9-8.8L34.4,25.7h-2.4c-1,0-1.8-0.8-1.8-1.8c0-1,0.8-1.8,1.8-1.8l0,0L35.3,22.1z"/>
	<path d="M16.9,37.7c1,0,1.8,0.8,1.8,1.8l0,0v5.4c0,1-0.8,1.8-1.8,1.8s-1.8-0.8-1.8-1.8l0,0v-5.4
		C15.1,38.5,15.9,37.7,16.9,37.7z"/>
	<path d="M10.2,31.4c1,0,1.8,0.8,1.8,1.8c0,1-0.8,1.8-1.8,1.8l0,0H4.8c-1,0-1.8-0.8-1.8-1.8c0-1,0.8-1.8,1.8-1.8l0,0
		H10.2z"/>
	<path d="M13.6,0.5c0.4,0,0.9,0.2,1.2,0.5l0,0l12.7,12.7c0.7,0.7,0.7,1.8,0,2.5c-0.7,0.7-1.8,0.7-2.5,0l0,0L13.6,4.7
		l-8.9,8.8l10.9,10.8h2.4c1,0,1.8,0.8,1.8,1.8c0,1-0.8,1.8-1.8,1.8l0,0l-3.3,0.1c-0.5,0-0.8-0.1-1.1-0.4l0,0L1,14.8
		c-0.3-0.3-0.5-0.8-0.5-1.2c0-0.5,0.2-0.9,0.5-1.2l0,0L12.3,1C12.7,0.7,13.1,0.5,13.6,0.5z"/>
	<path d="M44.9,15.1c1,0,1.8,0.8,1.8,1.8c0,1-0.8,1.8-1.8,1.8l0,0h-5.4c-1,0-1.8-0.8-1.8-1.8c0-1,0.8-1.8,1.8-1.8l0,0
		H44.9z"/>
	<path d="M33.1,3c1,0,1.8,0.8,1.8,1.8l0,0v5.4c0,1-0.8,1.8-1.8,1.8s-1.8-0.8-1.8-1.8l0,0V4.8C31.4,3.8,32.2,3,33.1,3z"
		/>
</symbol><symbol id="icons-green-back-checkmark" viewBox="0 0 16 16">
  <g>
    <circle style="fill:#41CF72;" cx="8" cy="8" r="8"/>
  </g>
  <path style="fill:#FFFFFF;" d="M6.4,11.8c-0.2,0-0.3-0.1-0.4-0.2l0,0L3.7,8.9C3.4,8.6,3.4,8.2,3.7,8C3.8,7.8,4,7.8,4.1,7.8h0
    c0.2,0,0.3,0.1,0.4,0.2l1.9,2.1l5-5.7c0.2-0.3,0.7-0.3,0.9,0c0.2,0.3,0.2,0.7,0,0.9l-5.4,6.2C6.8,11.7,6.6,11.8,6.4,11.8"/>
</symbol><symbol id="icons-video-large" viewBox="0 0 47 58">
  <path fill-rule="evenodd" d="M3.40866113,53.1554535 L3.40866113,4.38493724 L42.4247005,28.773932 L41.5372505,29.3250852 L3.40866113,53.1554535 Z M1.83927584,0 C1.57023836,0 1.3161474,0.063522738 1.08447624,0.19243653 C0.587504234,0.467078956 0.279232123,0.992075702 0.279232123,1.56004371 L0.279232123,55.9840836 C0.279232123,56.5389734 0.598714128,57.0789167 1.09568614,57.3591641 C1.57957994,57.6225966 2.19238753,57.6039135 2.68188627,57.3031146 L46.2155133,30.092963 C46.6676457,29.8145839 46.9460248,29.3082703 46.9460248,28.7720637 C46.9460248,28.2377254 46.6657774,27.7295435 46.213645,27.4455594 L2.67814964,0.233539478 C2.43340027,0.0803375804 2.141943,0 1.83927584,0 Z"/>
</symbol><symbol id="icons-search" viewBox="0 0 18 18">
  <path fill-rule="evenodd" d="M7.49571429,12.7637143 C4.59085714,12.7637143 2.22771429,10.4005714 2.22771429,7.49571429 C2.22771429,4.59171429 4.59085714,2.22857143 7.49571429,2.22857143 C10.4005714,2.22857143 12.7637143,4.59171429 12.7637143,7.49571429 C12.7637143,8.54571429 12.4508571,9.522 11.9202857,10.344 C11.5131429,10.9757143 10.9748571,11.5131429 10.344,11.9202857 C9.522,12.4517143 8.54571429,12.7637143 7.49571429,12.7637143 M17.1908571,15.6145714 L13.5171429,11.9417143 C14.4394286,10.6954286 14.9914286,9.16114286 14.9914286,7.49571429 C14.9914286,3.36257143 11.6288571,0 7.49571429,0 C3.36257143,0 0,3.36257143 0,7.49571429 C0,11.6297143 3.36257143,14.9922857 7.49571429,14.9922857 C9.16028571,14.9922857 10.6954286,14.4394286 11.9408571,13.5171429 L15.6145714,17.1908571 C15.8322857,17.4077143 16.1177143,17.5165714 16.4022857,17.5165714 C16.6877143,17.5165714 16.9731429,17.4077143 17.1908571,17.1908571 C17.6254286,16.7554286 17.6254286,16.05 17.1908571,15.6145714"/>
</symbol></svg>